G04 start of page 2 for group 0 idx 0 *
G04 Title: (unknown), top *
G04 Creator: pcb 20140316 *
G04 CreationDate: Wed 05 Dec 2018 13:28:39 GMT UTC *
G04 For: david *
G04 Format: Gerber/RS-274X *
G04 PCB-Dimensions (mil): 5803.15 7874.02 *
G04 PCB-Coordinate-Origin: lower left *
%MOIN*%
%FSLAX25Y25*%
%LNTOP*%
%ADD14C,0.0197*%
%ADD13C,0.0591*%
%ADD12R,0.0787X0.0787*%
%ADD11C,0.0001*%
G54D11*G36*
X195866Y786417D02*Y741142D01*
X148769D01*
Y745975D01*
X148778Y745982D01*
X148822Y746025D01*
X148858Y746076D01*
X149027Y746375D01*
X149164Y746689D01*
X149273Y747015D01*
X149351Y747349D01*
X149398Y747689D01*
X149413Y748031D01*
X149398Y748374D01*
X149351Y748714D01*
X149273Y749048D01*
X149164Y749374D01*
X149027Y749688D01*
X148861Y749989D01*
X148825Y750040D01*
X148780Y750084D01*
X148769Y750092D01*
Y777471D01*
X148778Y777478D01*
X148822Y777522D01*
X148858Y777572D01*
X149027Y777871D01*
X149164Y778185D01*
X149273Y778511D01*
X149351Y778845D01*
X149398Y779185D01*
X149413Y779528D01*
X149398Y779870D01*
X149351Y780210D01*
X149273Y780544D01*
X149164Y780870D01*
X149027Y781184D01*
X148861Y781485D01*
X148825Y781536D01*
X148780Y781580D01*
X148769Y781588D01*
Y786417D01*
X195866D01*
G37*
G36*
X148769Y741142D02*X145671D01*
Y744287D01*
X146012Y744303D01*
X146352Y744350D01*
X146686Y744428D01*
X147012Y744536D01*
X147326Y744674D01*
X147627Y744840D01*
X147677Y744876D01*
X147721Y744920D01*
X147758Y744971D01*
X147787Y745027D01*
X147806Y745086D01*
X147816Y745148D01*
X147816Y745210D01*
X147806Y745272D01*
X147786Y745331D01*
X147758Y745387D01*
X147721Y745437D01*
X147677Y745481D01*
X147627Y745518D01*
X147571Y745547D01*
X147512Y745566D01*
X147450Y745576D01*
X147387Y745576D01*
X147326Y745566D01*
X147266Y745546D01*
X147211Y745517D01*
X146976Y745384D01*
X146728Y745275D01*
X146471Y745190D01*
X146208Y745128D01*
X145940Y745091D01*
X145671Y745079D01*
Y750984D01*
X145940Y750972D01*
X146208Y750935D01*
X146471Y750873D01*
X146728Y750788D01*
X146976Y750679D01*
X147213Y750549D01*
X147267Y750519D01*
X147326Y750500D01*
X147388Y750491D01*
X147450Y750491D01*
X147511Y750500D01*
X147570Y750519D01*
X147625Y750547D01*
X147675Y750584D01*
X147719Y750628D01*
X147755Y750678D01*
X147784Y750733D01*
X147803Y750792D01*
X147812Y750853D01*
X147812Y750915D01*
X147803Y750976D01*
X147784Y751035D01*
X147756Y751090D01*
X147719Y751141D01*
X147675Y751184D01*
X147625Y751220D01*
X147326Y751389D01*
X147012Y751527D01*
X146686Y751635D01*
X146352Y751713D01*
X146012Y751760D01*
X145671Y751776D01*
Y775784D01*
X146012Y775799D01*
X146352Y775846D01*
X146686Y775924D01*
X147012Y776032D01*
X147326Y776170D01*
X147627Y776336D01*
X147677Y776372D01*
X147721Y776416D01*
X147758Y776467D01*
X147787Y776523D01*
X147806Y776582D01*
X147816Y776644D01*
X147816Y776706D01*
X147806Y776768D01*
X147786Y776827D01*
X147758Y776883D01*
X147721Y776933D01*
X147677Y776978D01*
X147627Y777014D01*
X147571Y777043D01*
X147512Y777062D01*
X147450Y777072D01*
X147387Y777072D01*
X147326Y777062D01*
X147266Y777042D01*
X147211Y777013D01*
X146976Y776880D01*
X146728Y776771D01*
X146471Y776686D01*
X146208Y776624D01*
X145940Y776587D01*
X145671Y776575D01*
Y782480D01*
X145940Y782468D01*
X146208Y782431D01*
X146471Y782369D01*
X146728Y782284D01*
X146976Y782175D01*
X147213Y782045D01*
X147267Y782016D01*
X147326Y781996D01*
X147388Y781987D01*
X147450Y781987D01*
X147511Y781996D01*
X147570Y782015D01*
X147625Y782044D01*
X147675Y782080D01*
X147719Y782124D01*
X147755Y782174D01*
X147784Y782229D01*
X147803Y782288D01*
X147812Y782349D01*
X147812Y782411D01*
X147803Y782472D01*
X147784Y782531D01*
X147756Y782587D01*
X147719Y782637D01*
X147675Y782681D01*
X147625Y782716D01*
X147326Y782885D01*
X147012Y783023D01*
X146686Y783131D01*
X146352Y783209D01*
X146012Y783256D01*
X145671Y783272D01*
Y786417D01*
X148769D01*
Y781588D01*
X148730Y781616D01*
X148674Y781645D01*
X148615Y781664D01*
X148553Y781674D01*
X148491Y781674D01*
X148429Y781664D01*
X148370Y781645D01*
X148314Y781616D01*
X148263Y781580D01*
X148219Y781535D01*
X148183Y781485D01*
X148154Y781429D01*
X148135Y781370D01*
X148125Y781308D01*
X148125Y781246D01*
X148135Y781184D01*
X148154Y781125D01*
X148184Y781070D01*
X148317Y780834D01*
X148426Y780586D01*
X148511Y780330D01*
X148573Y780066D01*
X148610Y779798D01*
X148622Y779528D01*
X148610Y779257D01*
X148573Y778989D01*
X148511Y778726D01*
X148426Y778469D01*
X148317Y778221D01*
X148186Y777984D01*
X148157Y777929D01*
X148138Y777870D01*
X148128Y777809D01*
X148128Y777747D01*
X148138Y777686D01*
X148157Y777627D01*
X148185Y777572D01*
X148222Y777522D01*
X148265Y777478D01*
X148316Y777441D01*
X148371Y777413D01*
X148430Y777394D01*
X148491Y777384D01*
X148553Y777384D01*
X148614Y777394D01*
X148673Y777413D01*
X148728Y777441D01*
X148769Y777471D01*
Y750092D01*
X148730Y750120D01*
X148674Y750149D01*
X148615Y750168D01*
X148553Y750178D01*
X148491Y750178D01*
X148429Y750168D01*
X148370Y750149D01*
X148314Y750120D01*
X148263Y750084D01*
X148219Y750039D01*
X148183Y749989D01*
X148154Y749933D01*
X148135Y749874D01*
X148125Y749812D01*
X148125Y749750D01*
X148135Y749688D01*
X148154Y749629D01*
X148184Y749574D01*
X148317Y749338D01*
X148426Y749090D01*
X148511Y748833D01*
X148573Y748570D01*
X148610Y748302D01*
X148622Y748031D01*
X148610Y747761D01*
X148573Y747493D01*
X148511Y747230D01*
X148426Y746973D01*
X148317Y746725D01*
X148186Y746488D01*
X148157Y746433D01*
X148138Y746374D01*
X148128Y746313D01*
X148128Y746251D01*
X148138Y746190D01*
X148157Y746131D01*
X148185Y746076D01*
X148222Y746026D01*
X148265Y745982D01*
X148316Y745945D01*
X148371Y745917D01*
X148430Y745898D01*
X148491Y745888D01*
X148553Y745888D01*
X148614Y745898D01*
X148673Y745917D01*
X148728Y745945D01*
X148769Y745975D01*
Y741142D01*
G37*
G36*
X145671D02*X142569D01*
Y745971D01*
X142609Y745943D01*
X142664Y745914D01*
X142724Y745895D01*
X142785Y745885D01*
X142848Y745885D01*
X142910Y745895D01*
X142969Y745914D01*
X143025Y745943D01*
X143075Y745979D01*
X143119Y746024D01*
X143156Y746074D01*
X143184Y746130D01*
X143204Y746189D01*
X143213Y746251D01*
X143213Y746313D01*
X143204Y746375D01*
X143184Y746434D01*
X143155Y746489D01*
X143021Y746725D01*
X142913Y746973D01*
X142828Y747230D01*
X142766Y747493D01*
X142729Y747761D01*
X142717Y748032D01*
X142729Y748302D01*
X142766Y748570D01*
X142828Y748833D01*
X142913Y749090D01*
X143021Y749338D01*
X143152Y749575D01*
X143181Y749630D01*
X143201Y749689D01*
X143210Y749750D01*
X143210Y749812D01*
X143201Y749873D01*
X143181Y749932D01*
X143153Y749987D01*
X143117Y750037D01*
X143073Y750081D01*
X143023Y750118D01*
X142968Y750146D01*
X142909Y750165D01*
X142848Y750175D01*
X142786Y750175D01*
X142724Y750165D01*
X142666Y750146D01*
X142610Y750118D01*
X142569Y750088D01*
Y777467D01*
X142609Y777439D01*
X142664Y777410D01*
X142724Y777391D01*
X142785Y777381D01*
X142848Y777381D01*
X142910Y777391D01*
X142969Y777410D01*
X143025Y777439D01*
X143075Y777476D01*
X143119Y777520D01*
X143156Y777570D01*
X143184Y777626D01*
X143204Y777685D01*
X143213Y777747D01*
X143213Y777809D01*
X143204Y777871D01*
X143184Y777931D01*
X143155Y777986D01*
X143021Y778221D01*
X142913Y778469D01*
X142828Y778726D01*
X142766Y778989D01*
X142729Y779257D01*
X142717Y779528D01*
X142729Y779798D01*
X142766Y780066D01*
X142828Y780330D01*
X142913Y780586D01*
X143021Y780834D01*
X143152Y781071D01*
X143181Y781126D01*
X143201Y781185D01*
X143210Y781246D01*
X143210Y781308D01*
X143201Y781369D01*
X143181Y781428D01*
X143153Y781483D01*
X143117Y781533D01*
X143073Y781577D01*
X143023Y781614D01*
X142968Y781642D01*
X142909Y781661D01*
X142848Y781671D01*
X142786Y781671D01*
X142724Y781661D01*
X142666Y781642D01*
X142610Y781614D01*
X142569Y781584D01*
Y786417D01*
X145671D01*
Y783272D01*
X145669Y783272D01*
X145326Y783256D01*
X144987Y783209D01*
X144652Y783131D01*
X144327Y783023D01*
X144012Y782885D01*
X143712Y782719D01*
X143661Y782683D01*
X143617Y782639D01*
X143580Y782588D01*
X143552Y782533D01*
X143533Y782473D01*
X143523Y782411D01*
X143523Y782349D01*
X143533Y782287D01*
X143552Y782228D01*
X143581Y782172D01*
X143617Y782122D01*
X143661Y782078D01*
X143712Y782041D01*
X143768Y782013D01*
X143827Y781993D01*
X143889Y781984D01*
X143951Y781984D01*
X144013Y781993D01*
X144072Y782013D01*
X144127Y782042D01*
X144363Y782175D01*
X144611Y782284D01*
X144867Y782369D01*
X145131Y782431D01*
X145399Y782468D01*
X145669Y782480D01*
X145671Y782480D01*
Y776575D01*
X145669Y776575D01*
X145399Y776587D01*
X145131Y776624D01*
X144867Y776686D01*
X144611Y776771D01*
X144363Y776880D01*
X144126Y777010D01*
X144071Y777040D01*
X144012Y777059D01*
X143951Y777068D01*
X143889Y777069D01*
X143828Y777059D01*
X143769Y777040D01*
X143714Y777012D01*
X143663Y776975D01*
X143620Y776931D01*
X143583Y776881D01*
X143555Y776826D01*
X143536Y776767D01*
X143526Y776706D01*
X143526Y776644D01*
X143536Y776583D01*
X143555Y776524D01*
X143583Y776469D01*
X143619Y776418D01*
X143663Y776375D01*
X143714Y776339D01*
X144012Y776170D01*
X144327Y776032D01*
X144652Y775924D01*
X144987Y775846D01*
X145326Y775799D01*
X145669Y775783D01*
X145671Y775784D01*
Y751776D01*
X145669Y751776D01*
X145326Y751760D01*
X144987Y751713D01*
X144652Y751635D01*
X144327Y751527D01*
X144012Y751389D01*
X143712Y751223D01*
X143661Y751187D01*
X143617Y751143D01*
X143580Y751092D01*
X143552Y751036D01*
X143533Y750977D01*
X143523Y750915D01*
X143523Y750853D01*
X143533Y750791D01*
X143552Y750732D01*
X143581Y750676D01*
X143617Y750626D01*
X143661Y750582D01*
X143712Y750545D01*
X143768Y750516D01*
X143827Y750497D01*
X143889Y750487D01*
X143951Y750487D01*
X144013Y750497D01*
X144072Y750517D01*
X144127Y750546D01*
X144363Y750679D01*
X144611Y750788D01*
X144867Y750873D01*
X145131Y750935D01*
X145399Y750972D01*
X145669Y750984D01*
X145671Y750984D01*
Y745079D01*
X145669Y745079D01*
X145399Y745091D01*
X145131Y745128D01*
X144867Y745190D01*
X144611Y745275D01*
X144363Y745384D01*
X144126Y745514D01*
X144071Y745544D01*
X144012Y745563D01*
X143951Y745572D01*
X143889Y745572D01*
X143828Y745563D01*
X143769Y745544D01*
X143714Y745516D01*
X143663Y745479D01*
X143620Y745435D01*
X143583Y745385D01*
X143555Y745330D01*
X143536Y745271D01*
X143526Y745210D01*
X143526Y745148D01*
X143536Y745087D01*
X143555Y745028D01*
X143583Y744973D01*
X143619Y744922D01*
X143663Y744879D01*
X143714Y744843D01*
X144012Y744674D01*
X144327Y744536D01*
X144652Y744428D01*
X144987Y744350D01*
X145326Y744303D01*
X145669Y744287D01*
X145671Y744287D01*
Y741142D01*
G37*
G36*
X142569D02*X93651D01*
Y745975D01*
X93660Y745982D01*
X93704Y746025D01*
X93740Y746076D01*
X93909Y746375D01*
X94046Y746689D01*
X94155Y747015D01*
X94232Y747349D01*
X94280Y747689D01*
X94295Y748031D01*
X94280Y748374D01*
X94232Y748714D01*
X94155Y749048D01*
X94046Y749374D01*
X93909Y749688D01*
X93743Y749989D01*
X93707Y750040D01*
X93662Y750084D01*
X93651Y750092D01*
Y777471D01*
X93660Y777478D01*
X93704Y777522D01*
X93740Y777572D01*
X93909Y777871D01*
X94046Y778185D01*
X94155Y778511D01*
X94232Y778845D01*
X94280Y779185D01*
X94295Y779528D01*
X94280Y779870D01*
X94232Y780210D01*
X94155Y780544D01*
X94046Y780870D01*
X93909Y781184D01*
X93743Y781485D01*
X93707Y781536D01*
X93662Y781580D01*
X93651Y781588D01*
Y786417D01*
X142569D01*
Y781584D01*
X142560Y781577D01*
X142516Y781534D01*
X142481Y781483D01*
X142312Y781184D01*
X142174Y780870D01*
X142066Y780544D01*
X141988Y780210D01*
X141941Y779870D01*
X141925Y779528D01*
X141941Y779185D01*
X141988Y778845D01*
X142066Y778511D01*
X142174Y778185D01*
X142312Y777871D01*
X142478Y777570D01*
X142514Y777520D01*
X142558Y777475D01*
X142569Y777467D01*
Y750088D01*
X142560Y750081D01*
X142516Y750038D01*
X142481Y749987D01*
X142312Y749688D01*
X142174Y749374D01*
X142066Y749048D01*
X141988Y748714D01*
X141941Y748374D01*
X141925Y748031D01*
X141941Y747689D01*
X141988Y747349D01*
X142066Y747015D01*
X142174Y746689D01*
X142312Y746375D01*
X142478Y746074D01*
X142514Y746023D01*
X142558Y745979D01*
X142569Y745971D01*
Y741142D01*
G37*
G36*
X93651D02*X90553D01*
Y744287D01*
X90894Y744303D01*
X91234Y744350D01*
X91568Y744428D01*
X91894Y744536D01*
X92208Y744674D01*
X92508Y744840D01*
X92559Y744876D01*
X92603Y744920D01*
X92640Y744971D01*
X92668Y745027D01*
X92688Y745086D01*
X92697Y745148D01*
X92697Y745210D01*
X92688Y745272D01*
X92668Y745331D01*
X92640Y745387D01*
X92603Y745437D01*
X92559Y745481D01*
X92508Y745518D01*
X92453Y745547D01*
X92393Y745566D01*
X92332Y745576D01*
X92269Y745576D01*
X92208Y745566D01*
X92148Y745546D01*
X92093Y745517D01*
X91858Y745384D01*
X91610Y745275D01*
X91353Y745190D01*
X91090Y745128D01*
X90822Y745091D01*
X90553Y745079D01*
Y750984D01*
X90822Y750972D01*
X91090Y750935D01*
X91353Y750873D01*
X91610Y750788D01*
X91858Y750679D01*
X92095Y750549D01*
X92149Y750519D01*
X92208Y750500D01*
X92270Y750491D01*
X92331Y750491D01*
X92393Y750500D01*
X92452Y750519D01*
X92507Y750547D01*
X92557Y750584D01*
X92601Y750628D01*
X92637Y750678D01*
X92665Y750733D01*
X92685Y750792D01*
X92694Y750853D01*
X92694Y750915D01*
X92685Y750976D01*
X92666Y751035D01*
X92637Y751090D01*
X92601Y751141D01*
X92557Y751184D01*
X92506Y751220D01*
X92208Y751389D01*
X91894Y751527D01*
X91568Y751635D01*
X91234Y751713D01*
X90894Y751760D01*
X90553Y751776D01*
Y775784D01*
X90894Y775799D01*
X91234Y775846D01*
X91568Y775924D01*
X91894Y776032D01*
X92208Y776170D01*
X92508Y776336D01*
X92559Y776372D01*
X92603Y776416D01*
X92640Y776467D01*
X92668Y776523D01*
X92688Y776582D01*
X92697Y776644D01*
X92697Y776706D01*
X92688Y776768D01*
X92668Y776827D01*
X92640Y776883D01*
X92603Y776933D01*
X92559Y776978D01*
X92508Y777014D01*
X92453Y777043D01*
X92393Y777062D01*
X92332Y777072D01*
X92269Y777072D01*
X92208Y777062D01*
X92148Y777042D01*
X92093Y777013D01*
X91858Y776880D01*
X91610Y776771D01*
X91353Y776686D01*
X91090Y776624D01*
X90822Y776587D01*
X90553Y776575D01*
Y782480D01*
X90822Y782468D01*
X91090Y782431D01*
X91353Y782369D01*
X91610Y782284D01*
X91858Y782175D01*
X92095Y782045D01*
X92149Y782016D01*
X92208Y781996D01*
X92270Y781987D01*
X92331Y781987D01*
X92393Y781996D01*
X92452Y782015D01*
X92507Y782044D01*
X92557Y782080D01*
X92601Y782124D01*
X92637Y782174D01*
X92665Y782229D01*
X92685Y782288D01*
X92694Y782349D01*
X92694Y782411D01*
X92685Y782472D01*
X92666Y782531D01*
X92637Y782587D01*
X92601Y782637D01*
X92557Y782681D01*
X92506Y782716D01*
X92208Y782885D01*
X91894Y783023D01*
X91568Y783131D01*
X91234Y783209D01*
X90894Y783256D01*
X90553Y783272D01*
Y786417D01*
X93651D01*
Y781588D01*
X93612Y781616D01*
X93556Y781645D01*
X93497Y781664D01*
X93435Y781674D01*
X93373Y781674D01*
X93311Y781664D01*
X93251Y781645D01*
X93196Y781616D01*
X93145Y781580D01*
X93101Y781535D01*
X93064Y781485D01*
X93036Y781429D01*
X93017Y781370D01*
X93007Y781308D01*
X93007Y781246D01*
X93017Y781184D01*
X93036Y781125D01*
X93066Y781070D01*
X93199Y780834D01*
X93308Y780586D01*
X93393Y780330D01*
X93454Y780066D01*
X93492Y779798D01*
X93504Y779528D01*
X93492Y779257D01*
X93454Y778989D01*
X93393Y778726D01*
X93308Y778469D01*
X93199Y778221D01*
X93068Y777984D01*
X93039Y777929D01*
X93020Y777870D01*
X93010Y777809D01*
X93010Y777747D01*
X93020Y777686D01*
X93039Y777627D01*
X93067Y777572D01*
X93104Y777522D01*
X93147Y777478D01*
X93197Y777441D01*
X93253Y777413D01*
X93312Y777394D01*
X93373Y777384D01*
X93435Y777384D01*
X93496Y777394D01*
X93555Y777413D01*
X93610Y777441D01*
X93651Y777471D01*
Y750092D01*
X93612Y750120D01*
X93556Y750149D01*
X93497Y750168D01*
X93435Y750178D01*
X93373Y750178D01*
X93311Y750168D01*
X93251Y750149D01*
X93196Y750120D01*
X93145Y750084D01*
X93101Y750039D01*
X93064Y749989D01*
X93036Y749933D01*
X93017Y749874D01*
X93007Y749812D01*
X93007Y749750D01*
X93017Y749688D01*
X93036Y749629D01*
X93066Y749574D01*
X93199Y749338D01*
X93308Y749090D01*
X93393Y748833D01*
X93454Y748570D01*
X93492Y748302D01*
X93504Y748031D01*
X93492Y747761D01*
X93454Y747493D01*
X93393Y747230D01*
X93308Y746973D01*
X93199Y746725D01*
X93068Y746488D01*
X93039Y746433D01*
X93020Y746374D01*
X93010Y746313D01*
X93010Y746251D01*
X93020Y746190D01*
X93039Y746131D01*
X93067Y746076D01*
X93104Y746026D01*
X93147Y745982D01*
X93197Y745945D01*
X93253Y745917D01*
X93312Y745898D01*
X93373Y745888D01*
X93435Y745888D01*
X93496Y745898D01*
X93555Y745917D01*
X93610Y745945D01*
X93651Y745975D01*
Y741142D01*
G37*
G36*
X90553D02*X87451D01*
Y745971D01*
X87491Y745943D01*
X87546Y745914D01*
X87606Y745895D01*
X87667Y745885D01*
X87730Y745885D01*
X87791Y745895D01*
X87851Y745914D01*
X87907Y745943D01*
X87957Y745979D01*
X88001Y746024D01*
X88038Y746074D01*
X88066Y746130D01*
X88085Y746189D01*
X88095Y746251D01*
X88095Y746313D01*
X88085Y746375D01*
X88066Y746434D01*
X88037Y746489D01*
X87903Y746725D01*
X87795Y746973D01*
X87709Y747230D01*
X87648Y747493D01*
X87611Y747761D01*
X87598Y748032D01*
X87611Y748302D01*
X87648Y748570D01*
X87709Y748833D01*
X87795Y749090D01*
X87903Y749338D01*
X88034Y749575D01*
X88063Y749630D01*
X88082Y749689D01*
X88092Y749750D01*
X88092Y749812D01*
X88082Y749873D01*
X88063Y749932D01*
X88035Y749987D01*
X87999Y750037D01*
X87955Y750081D01*
X87905Y750118D01*
X87850Y750146D01*
X87791Y750165D01*
X87730Y750175D01*
X87668Y750175D01*
X87606Y750165D01*
X87547Y750146D01*
X87492Y750118D01*
X87451Y750088D01*
Y777467D01*
X87491Y777439D01*
X87546Y777410D01*
X87606Y777391D01*
X87667Y777381D01*
X87730Y777381D01*
X87791Y777391D01*
X87851Y777410D01*
X87907Y777439D01*
X87957Y777476D01*
X88001Y777520D01*
X88038Y777570D01*
X88066Y777626D01*
X88085Y777685D01*
X88095Y777747D01*
X88095Y777809D01*
X88085Y777871D01*
X88066Y777931D01*
X88037Y777986D01*
X87903Y778221D01*
X87795Y778469D01*
X87709Y778726D01*
X87648Y778989D01*
X87611Y779257D01*
X87598Y779528D01*
X87611Y779798D01*
X87648Y780066D01*
X87709Y780330D01*
X87795Y780586D01*
X87903Y780834D01*
X88034Y781071D01*
X88063Y781126D01*
X88082Y781185D01*
X88092Y781246D01*
X88092Y781308D01*
X88082Y781369D01*
X88063Y781428D01*
X88035Y781483D01*
X87999Y781533D01*
X87955Y781577D01*
X87905Y781614D01*
X87850Y781642D01*
X87791Y781661D01*
X87730Y781671D01*
X87668Y781671D01*
X87606Y781661D01*
X87547Y781642D01*
X87492Y781614D01*
X87451Y781584D01*
Y786417D01*
X90553D01*
Y783272D01*
X90551Y783272D01*
X90208Y783256D01*
X89868Y783209D01*
X89534Y783131D01*
X89209Y783023D01*
X88894Y782885D01*
X88594Y782719D01*
X88543Y782683D01*
X88499Y782639D01*
X88462Y782588D01*
X88434Y782533D01*
X88415Y782473D01*
X88405Y782411D01*
X88405Y782349D01*
X88415Y782287D01*
X88434Y782228D01*
X88462Y782172D01*
X88499Y782122D01*
X88543Y782078D01*
X88594Y782041D01*
X88650Y782013D01*
X88709Y781993D01*
X88771Y781984D01*
X88833Y781984D01*
X88895Y781993D01*
X88954Y782013D01*
X89009Y782042D01*
X89244Y782175D01*
X89492Y782284D01*
X89749Y782369D01*
X90013Y782431D01*
X90281Y782468D01*
X90551Y782480D01*
X90553Y782480D01*
Y776575D01*
X90551Y776575D01*
X90281Y776587D01*
X90013Y776624D01*
X89749Y776686D01*
X89492Y776771D01*
X89244Y776880D01*
X89008Y777010D01*
X88953Y777040D01*
X88894Y777059D01*
X88833Y777068D01*
X88771Y777069D01*
X88710Y777059D01*
X88651Y777040D01*
X88596Y777012D01*
X88545Y776975D01*
X88502Y776931D01*
X88465Y776881D01*
X88437Y776826D01*
X88418Y776767D01*
X88408Y776706D01*
X88408Y776644D01*
X88418Y776583D01*
X88437Y776524D01*
X88465Y776469D01*
X88501Y776418D01*
X88545Y776375D01*
X88596Y776339D01*
X88894Y776170D01*
X89209Y776032D01*
X89534Y775924D01*
X89868Y775846D01*
X90208Y775799D01*
X90551Y775783D01*
X90553Y775784D01*
Y751776D01*
X90551Y751776D01*
X90208Y751760D01*
X89868Y751713D01*
X89534Y751635D01*
X89209Y751527D01*
X88894Y751389D01*
X88594Y751223D01*
X88543Y751187D01*
X88499Y751143D01*
X88462Y751092D01*
X88434Y751036D01*
X88415Y750977D01*
X88405Y750915D01*
X88405Y750853D01*
X88415Y750791D01*
X88434Y750732D01*
X88462Y750676D01*
X88499Y750626D01*
X88543Y750582D01*
X88594Y750545D01*
X88650Y750516D01*
X88709Y750497D01*
X88771Y750487D01*
X88833Y750487D01*
X88895Y750497D01*
X88954Y750517D01*
X89009Y750546D01*
X89244Y750679D01*
X89492Y750788D01*
X89749Y750873D01*
X90013Y750935D01*
X90281Y750972D01*
X90551Y750984D01*
X90553Y750984D01*
Y745079D01*
X90551Y745079D01*
X90281Y745091D01*
X90013Y745128D01*
X89749Y745190D01*
X89492Y745275D01*
X89244Y745384D01*
X89008Y745514D01*
X88953Y745544D01*
X88894Y745563D01*
X88833Y745572D01*
X88771Y745572D01*
X88710Y745563D01*
X88651Y745544D01*
X88596Y745516D01*
X88545Y745479D01*
X88502Y745435D01*
X88465Y745385D01*
X88437Y745330D01*
X88418Y745271D01*
X88408Y745210D01*
X88408Y745148D01*
X88418Y745087D01*
X88437Y745028D01*
X88465Y744973D01*
X88501Y744922D01*
X88545Y744879D01*
X88596Y744843D01*
X88894Y744674D01*
X89209Y744536D01*
X89534Y744428D01*
X89868Y744350D01*
X90208Y744303D01*
X90551Y744287D01*
X90553Y744287D01*
Y741142D01*
G37*
G36*
X87451D02*X40354D01*
Y786417D01*
X87451D01*
Y781584D01*
X87442Y781577D01*
X87398Y781534D01*
X87363Y781483D01*
X87194Y781184D01*
X87056Y780870D01*
X86948Y780544D01*
X86870Y780210D01*
X86823Y779870D01*
X86807Y779528D01*
X86823Y779185D01*
X86870Y778845D01*
X86948Y778511D01*
X87056Y778185D01*
X87194Y777871D01*
X87359Y777570D01*
X87396Y777520D01*
X87440Y777475D01*
X87451Y777467D01*
Y750088D01*
X87442Y750081D01*
X87398Y750038D01*
X87363Y749987D01*
X87194Y749688D01*
X87056Y749374D01*
X86948Y749048D01*
X86870Y748714D01*
X86823Y748374D01*
X86807Y748031D01*
X86823Y747689D01*
X86870Y747349D01*
X86948Y747015D01*
X87056Y746689D01*
X87194Y746375D01*
X87359Y746074D01*
X87396Y746023D01*
X87440Y745979D01*
X87451Y745971D01*
Y741142D01*
G37*
G54D12*X125984Y782677D02*Y770867D01*
X110236Y782677D02*Y770867D01*
X125984Y756299D02*Y744489D01*
X110236Y756299D02*Y744489D01*
G54D13*X145669Y779528D03*
Y748031D03*
X90551D03*
Y779528D03*
G54D14*M02*
