G04 start of page 6 for group -4063 idx -4063 *
G04 Title: (unknown), componentmask *
G04 Creator: pcb 20140316 *
G04 CreationDate: Wed 05 Dec 2018 13:19:10 GMT UTC *
G04 For: david *
G04 Format: Gerber/RS-274X *
G04 PCB-Dimensions (mil): 5803.15 7874.02 *
G04 PCB-Coordinate-Origin: lower left *
%MOIN*%
%FSLAX25Y25*%
%LNTOPMASK*%
%ADD69R,0.0539X0.0539*%
%ADD68R,0.0224X0.0224*%
%ADD67R,0.0815X0.0815*%
%ADD66R,0.1287X0.1287*%
%ADD65R,0.0401X0.0401*%
%ADD64R,0.0618X0.0618*%
%ADD63R,0.0185X0.0185*%
%ADD62R,0.0382X0.0382*%
%ADD61C,0.2992*%
%ADD60C,0.0512*%
%ADD59C,0.0630*%
%ADD58C,0.0680*%
G54D58*X35433Y330709D03*
X45433D03*
X78740Y366142D03*
X88740D03*
X43307Y448819D03*
X53307D03*
X82677Y488189D03*
X92677D03*
X122047Y531496D03*
X132047D03*
G54D59*X127560Y419291D03*
Y391733D03*
G54D60*X138189Y415354D03*
Y395670D03*
G54D58*X129921Y653543D03*
X139921D03*
X255906D03*
X265906D03*
X62992Y566929D03*
X72992D03*
X98425Y610236D03*
X108425D03*
X263780Y531496D03*
X273780D03*
X287402Y610236D03*
X297402D03*
X322835Y566929D03*
X332835D03*
X192913Y767717D03*
X202913D03*
G54D61*X196850Y732283D03*
G54D58*X145669Y720472D03*
X155669D03*
X110236Y685039D03*
X120236D03*
X275591D03*
X285591D03*
X240157Y720472D03*
X250157D03*
X354331Y330709D03*
X364331D03*
X314961Y366142D03*
X324961D03*
X342520Y448819D03*
X352520D03*
X303150Y488189D03*
X313150D03*
G54D62*X177558Y587204D02*Y586024D01*
X169291Y587204D02*Y586024D01*
X216142Y587204D02*Y586024D01*
X224409Y587204D02*Y586024D01*
X153936Y571456D02*Y570276D01*
X145669Y571456D02*Y570276D01*
X216142Y618700D02*Y617520D01*
X224409Y618700D02*Y617520D01*
X177558Y618700D02*Y617520D01*
X169291Y618700D02*Y617520D01*
G54D63*X136319Y410630D02*X140059D01*
X136319Y408071D02*X140059D01*
X136319Y405512D02*X140059D01*
X136319Y402953D02*X140059D01*
X136319Y400394D02*X140059D01*
G54D64*X127461Y409449D02*X127658D01*
X127461Y401575D02*X127658D01*
G54D65*X126378Y394587D02*X128741D01*
G54D62*X164764Y417323D02*X165944D01*
X164764Y425590D02*X165944D01*
X156890Y417323D02*X158070D01*
G54D65*X126378Y416437D02*X128741D01*
G54D62*X156890Y425590D02*X158070D01*
X145276Y488779D02*Y487599D01*
X137009Y488779D02*Y487599D01*
X121654Y473031D02*Y471851D01*
X113387Y473031D02*Y471851D01*
X121653Y453346D02*Y452166D01*
X113386Y453346D02*Y452166D01*
X138188Y362795D02*Y361615D01*
X129921Y362795D02*Y361615D01*
G54D66*X137795Y324804D02*Y328740D01*
G54D62*X138188Y347047D02*Y345867D01*
X129921Y347047D02*Y345867D01*
G54D67*X204724Y240551D02*Y228741D01*
Y271259D02*Y259449D01*
X188976Y240551D02*Y228741D01*
Y271259D02*Y259449D01*
G54D66*X253149Y324804D02*Y328740D01*
G54D62*X275198Y350984D02*Y349804D01*
X283465Y350984D02*Y349804D01*
G54D68*X198424Y439173D02*Y436419D01*
G54D62*X180512Y437008D02*X181692D01*
G54D68*X201573Y439173D02*Y436419D01*
X204723Y439173D02*Y436419D01*
X207872Y439173D02*Y436419D01*
G54D67*X180119Y401575D02*X193897D01*
G54D62*X189369Y382480D02*Y381300D01*
X181102Y382480D02*Y381300D01*
X180512Y428741D02*X181692D01*
G54D67*X217519Y401575D02*X231299D01*
G54D62*X220079Y382480D02*Y381300D01*
X228346Y382480D02*Y381300D01*
X275591Y378543D02*Y377363D01*
X283858Y378543D02*Y377363D01*
G54D68*X211022Y439173D02*Y436419D01*
X214172Y439173D02*Y436419D01*
X217321Y439173D02*Y436419D01*
X220471Y439173D02*Y436419D01*
X224605Y443307D02*X227361D01*
X224605Y446457D02*X227361D01*
X224605Y449607D02*X227361D01*
X224605Y452756D02*X227361D01*
X224605Y455906D02*X227361D01*
X224605Y459055D02*X227361D01*
G54D62*X294883Y453346D02*Y452166D01*
X303150Y453346D02*Y452166D01*
X279135Y488779D02*Y487599D01*
X287402Y488779D02*Y487599D01*
G54D68*X224605Y462205D02*X227361D01*
X224605Y465355D02*X227361D01*
X220471Y472244D02*Y469488D01*
X217321Y472244D02*Y469488D01*
X214172Y472244D02*Y469488D01*
G54D69*X216043Y539370D02*X217027D01*
X216043Y521654D02*X217027D01*
G54D62*X243702Y512401D02*Y511221D01*
X251969Y512401D02*Y511221D01*
X247639Y571456D02*Y570276D01*
X255906Y571456D02*Y570276D01*
G54D68*X211022Y472244D02*Y469488D01*
X207872Y472244D02*Y469488D01*
X204723Y472244D02*Y469488D01*
X201573Y472244D02*Y469488D01*
X198424Y472244D02*Y469488D01*
G54D62*X201180Y504527D02*Y503347D01*
G54D68*X191535Y465355D02*X194291D01*
X191535Y462205D02*X194291D01*
X191535Y459055D02*X194291D01*
G54D62*X172835Y461220D02*Y460040D01*
X181102Y461220D02*Y460040D01*
G54D68*X191535Y455906D02*X194291D01*
X191535Y452756D02*X194291D01*
X191535Y449607D02*X194291D01*
X191535Y446457D02*X194291D01*
X191535Y443307D02*X194291D01*
G54D69*X184744Y539370D02*X185728D01*
X184744Y521654D02*X185728D01*
G54D62*X176772Y504527D02*Y503347D01*
X185039Y504527D02*Y503347D01*
X192913Y504527D02*Y503347D01*
X216142Y669881D02*Y668701D01*
X224409Y669881D02*Y668701D01*
X177558Y669881D02*Y668701D01*
X169291Y669881D02*Y668701D01*
X192913Y669881D02*Y668701D01*
X201180Y669881D02*Y668701D01*
X216142Y642322D02*Y641142D01*
X224409Y642322D02*Y641142D01*
X177558Y650196D02*Y649016D01*
X169291Y650196D02*Y649016D01*
M02*
