M48
INCH
T57C0.016
T56C0.020
T55C0.197
T54C0.033
T53C0.043
T52C0.028
%
T57
X014803Y047756
X015630Y046969
X015984Y048898
X016969Y056102
X018858Y055551
X019567Y055669
X019921Y048898
X020236Y056890
X020433Y057835
X020591Y049409
X021024Y066496
X021024Y056654
X021417Y045591
X021575Y060827
X021850Y049961
X021890Y045039
X022598Y063110
X022638Y049843
X023740Y045906
X023898Y044803
X023898Y042756
X024291Y050433
X024331Y056102
X024528Y045551
X024528Y042992
X024921Y039331
X025000Y045000
X025000Y041063
X025433Y047165
X025433Y043307
X026181Y045787
X026181Y044291
T56
X013189Y037087
X014764Y043780
X015157Y039469
X015354Y044488
X015354Y043209
X015846Y045177
X015866Y052087
X016437Y036516
X016457Y046024
X017520Y043780
X017559Y051181
X017835Y053937
X017913Y044390
X018110Y042047
X018996Y043209
X019587Y038189
X020039Y045787
X020118Y051299
X020276Y044409
X020571Y039370
X021063Y042028
X021260Y038189
X021496Y054606
X022146Y041535
X022638Y036516
T52
X003543Y033071
X004331Y044882
X004543Y033071
X005331Y044882
X006299Y056693
X007299Y056693
X007874Y036614
X008268Y048819
X008874Y036614
X009268Y048819
X009843Y061024
X010843Y061024
X011024Y068504
X012024Y068504
X012205Y053150
X012992Y065354
X013205Y053150
X013992Y065354
X014567Y072047
X015567Y072047
X019291Y076772
X020291Y076772
X024016Y072047
X025016Y072047
X025591Y065354
X026378Y053150
X026591Y065354
X027378Y053150
X027559Y068504
X028559Y068504
X028740Y061024
X029740Y061024
X030315Y048819
X031315Y048819
X031496Y036614
X032283Y056693
X032496Y036614
X033283Y056693
X034252Y044882
X035252Y044882
X035433Y033071
X036433Y033071
T54
X013819Y041535
X013819Y039567
T53
X012756Y041929
X012756Y039173
T55
X019685Y073228
M30
