G04 start of page 4 for group 6 idx 6 *
G04 Title: (unknown), outline *
G04 Creator: pcb 20140316 *
G04 CreationDate: Wed 05 Dec 2018 13:19:10 GMT UTC *
G04 For: david *
G04 Format: Gerber/RS-274X *
G04 PCB-Dimensions (mil): 5803.15 7874.02 *
G04 PCB-Coordinate-Origin: lower left *
%MOIN*%
%FSLAX25Y25*%
%LNOUTLINE*%
%ADD51C,0.0100*%
G54D51*X122047Y547244D02*X15748Y433071D01*
X122047Y440945D01*
Y429134D01*
X0Y314961D02*X118110Y322835D01*
X122047Y385827D02*Y433071D01*
X118110Y322835D02*Y263780D01*
X74803Y377953D02*X0Y314961D01*
X74803Y377953D02*X122047Y385827D01*
X192913Y224409D02*X78740D01*
X118110Y263780D01*
X129921Y669291D02*X39370Y551181D01*
X122047Y559055D01*
Y547244D01*
X196850Y787402D02*X74803Y661417D01*
X129921Y677165D01*
Y669291D01*
X196850Y787402D02*X318898Y661417D01*
X263780Y677165D01*
Y669291D01*
X354331Y551181D01*
X271654Y559055D01*
Y547244D01*
X377953Y433071D01*
X393701Y314961D02*X275591Y322835D01*
X271654Y429134D02*X393701Y314961D01*
X377953Y433071D02*X271654Y440945D01*
Y429134D01*
X192913Y224409D02*Y275591D01*
X200787D01*
Y224409D01*
X275591Y263780D02*Y322835D01*
X200787Y224409D02*X314961D01*
X275591Y263780D01*
M02*
