G04 start of page 8 for group -4079 idx -4079 *
G04 Title: (unknown), topsilk *
G04 Creator: pcb 20140316 *
G04 CreationDate: Wed 05 Dec 2018 13:19:10 GMT UTC *
G04 For: david *
G04 Format: Gerber/RS-274X *
G04 PCB-Dimensions (mil): 5803.15 7874.02 *
G04 PCB-Coordinate-Origin: lower left *
%MOIN*%
%FSLAX25Y25*%
%LNTOPSILK*%
%ADD80C,0.0040*%
%ADD79C,0.0197*%
%ADD78C,0.0039*%
%ADD77C,0.0100*%
%ADD76C,0.0059*%
G54D76*X161772Y428346D02*Y414568D01*
X168936Y428346D02*Y414568D01*
X161772D02*X168936D01*
X161772Y428346D02*X168936D01*
X153898D02*Y414568D01*
X161062Y428346D02*Y414568D01*
X153898D02*X161062D01*
X153898Y428346D02*X161062D01*
G54D77*X48933Y337909D02*Y323409D01*
X47933Y338809D02*X48933Y337809D01*
X47933Y322409D02*X48833Y323309D01*
X47936Y338811D02*G75*G03X47936Y322406I-8202J-8202D01*G01*
G54D76*X127165Y358623D02*X140943D01*
X127165Y365787D02*X140943D01*
Y358623D01*
X127165Y365787D02*Y358623D01*
G54D78*X137795Y340551D02*X153543D01*
X137795Y312993D02*X153543D01*
X253149Y340551D02*X237401D01*
X253149Y312993D02*X237401D01*
X151378Y326772D02*G75*G02X151378Y326772I44094J0D01*G01*
G54D76*X127165Y342875D02*X140943D01*
X127165Y350039D02*X140943D01*
Y342875D01*
X127165Y350039D02*Y342875D01*
G54D77*X135547Y538696D02*Y524196D01*
X134547Y539596D02*X135547Y538596D01*
X134547Y523196D02*X135447Y524096D01*
X134550Y539599D02*G75*G03X134550Y523194I-8202J-8202D01*G01*
X56807Y456019D02*Y441519D01*
X55807Y456919D02*X56807Y455919D01*
X55807Y440519D02*X56707Y441419D01*
X55810Y456921D02*G75*G03X55810Y440516I-8202J-8202D01*G01*
G54D76*X134253Y484607D02*X148031D01*
X134253Y491771D02*X148031D01*
Y484607D01*
X134253Y491771D02*Y484607D01*
X110631Y468859D02*X124409D01*
X110631Y476023D02*X124409D01*
Y468859D01*
X110631Y476023D02*Y468859D01*
X110630Y449174D02*X124408D01*
X110630Y456338D02*X124408D01*
Y449174D01*
X110630Y456338D02*Y449174D01*
X177520Y439764D02*Y425986D01*
X184684Y439764D02*Y425986D01*
X177520D02*X184684D01*
X177520Y439764D02*X184684D01*
X170080Y464212D02*X183858D01*
X170080Y457048D02*X183858D01*
X170080Y464212D02*Y457048D01*
X183858Y464212D02*Y457048D01*
X174017Y507519D02*X187795D01*
X174017Y500355D02*X187795D01*
X174017Y507519D02*Y500355D01*
X187795Y507519D02*Y500355D01*
X190158Y507519D02*X203936D01*
X190158Y500355D02*X203936D01*
X190158Y507519D02*Y500355D01*
X203936Y507519D02*Y500355D01*
X240947Y515393D02*X254725D01*
X240947Y508229D02*X254725D01*
X240947Y515393D02*Y508229D01*
X254725Y515393D02*Y508229D01*
G54D78*X121851Y421043D02*Y389981D01*
X116418Y419094D02*Y391930D01*
Y419094D02*X121851D01*
X116418Y391930D02*X121851D01*
G54D77*X206413Y774917D02*Y760417D01*
X205413Y775817D02*X206413Y774817D01*
X205413Y759417D02*X206313Y760317D01*
X205416Y775819D02*G75*G03X205416Y759414I-8202J-8202D01*G01*
G54D78*X177165Y732283D02*G75*G03X177165Y732283I19685J0D01*G01*
G54D76*X213387Y672873D02*X227165D01*
X213387Y665709D02*X227165D01*
X213387Y672873D02*Y665709D01*
X227165Y672873D02*Y665709D01*
X190158Y672873D02*X203936D01*
X190158Y665709D02*X203936D01*
X190158Y672873D02*Y665709D01*
X203936Y672873D02*Y665709D01*
X166535D02*X180313D01*
X166535Y672873D02*X180313D01*
Y665709D01*
X166535Y672873D02*Y665709D01*
G54D77*X76492Y574129D02*Y559629D01*
X75492Y575029D02*X76492Y574029D01*
X75492Y558629D02*X76392Y559529D01*
X75495Y575032D02*G75*G03X75495Y558627I-8202J-8202D01*G01*
X143421Y660743D02*Y646243D01*
X142421Y661643D02*X143421Y660643D01*
X142421Y645243D02*X143321Y646143D01*
X142424Y661646D02*G75*G03X142424Y645241I-8202J-8202D01*G01*
G54D76*X166535Y646024D02*X180313D01*
X166535Y653188D02*X180313D01*
Y646024D01*
X166535Y653188D02*Y646024D01*
G54D77*X336335Y574129D02*Y559629D01*
X335335Y575029D02*X336335Y574029D01*
X335335Y558629D02*X336235Y559529D01*
X335337Y575032D02*G75*G03X335337Y558627I-8202J-8202D01*G01*
G54D76*X244884Y574448D02*X258662D01*
X244884Y567284D02*X258662D01*
X244884Y574448D02*Y567284D01*
X258662Y574448D02*Y567284D01*
G54D77*X269406Y660743D02*Y646243D01*
X268406Y661643D02*X269406Y660643D01*
X268406Y645243D02*X269306Y646143D01*
X268408Y661646D02*G75*G03X268408Y645241I-8202J-8202D01*G01*
G54D76*X213387Y645314D02*X227165D01*
X213387Y638150D02*X227165D01*
X213387Y645314D02*Y638150D01*
X227165Y645314D02*Y638150D01*
X213387Y621692D02*X227165D01*
X213387Y614528D02*X227165D01*
X213387Y621692D02*Y614528D01*
X227165Y621692D02*Y614528D01*
X213387Y590196D02*X227165D01*
X213387Y583032D02*X227165D01*
X213387Y590196D02*Y583032D01*
X227165Y590196D02*Y583032D01*
X166535D02*X180313D01*
X166535Y590196D02*X180313D01*
Y583032D01*
X166535Y590196D02*Y583032D01*
Y614528D02*X180313D01*
X166535Y621692D02*X180313D01*
Y614528D01*
X166535Y621692D02*Y614528D01*
X142913Y567284D02*X156691D01*
X142913Y574448D02*X156691D01*
Y567284D01*
X142913Y574448D02*Y567284D01*
G54D77*X367831Y337909D02*Y323409D01*
X366831Y338809D02*X367831Y337809D01*
X366831Y322409D02*X367731Y323309D01*
X366833Y338811D02*G75*G03X366833Y322406I-8202J-8202D01*G01*
X356020Y456019D02*Y441519D01*
X355020Y456919D02*X356020Y455919D01*
X355020Y440519D02*X355920Y441419D01*
X355022Y456921D02*G75*G03X355022Y440516I-8202J-8202D01*G01*
G54D79*X195669Y439370D03*
G54D78*X188680Y542716D02*X213090D01*
X188680Y518308D02*X213090D01*
G54D77*X277280Y538696D02*Y524196D01*
X276280Y539596D02*X277280Y538596D01*
X276280Y523196D02*X277180Y524096D01*
X276282Y539599D02*G75*G03X276282Y523194I-8202J-8202D01*G01*
G54D78*X176182Y391339D02*X235236D01*
X176182Y411811D02*X235236D01*
G54D76*X178346Y378308D02*X192124D01*
X178346Y385472D02*X192124D01*
Y378308D01*
X178346Y385472D02*Y378308D01*
X217324Y385472D02*X231102D01*
X217324Y378308D02*X231102D01*
X217324Y385472D02*Y378308D01*
X231102Y385472D02*Y378308D01*
X292128Y456338D02*X305906D01*
X292128Y449174D02*X305906D01*
X292128Y456338D02*Y449174D01*
X305906Y456338D02*Y449174D01*
X276380Y491771D02*X290158D01*
X276380Y484607D02*X290158D01*
X276380Y491771D02*Y484607D01*
X290158Y491771D02*Y484607D01*
X272836Y381535D02*X286614D01*
X272836Y374371D02*X286614D01*
X272836Y381535D02*Y374371D01*
X286614Y381535D02*Y374371D01*
X272443Y353976D02*X286221D01*
X272443Y346812D02*X286221D01*
X272443Y353976D02*Y346812D01*
X286221Y353976D02*Y346812D01*
G54D80*X205787Y758843D02*Y754843D01*
X207787D01*
X208987Y757043D02*X210487D01*
X208987Y754843D02*X210987D01*
X208987Y758843D02*Y754843D01*
Y758843D02*X210987D01*
X212687D02*Y754843D01*
X213987Y758843D02*X214687Y758143D01*
Y755543D01*
X213987Y754843D02*X214687Y755543D01*
X212187Y754843D02*X213987D01*
X212187Y758843D02*X213987D01*
X215887Y758043D02*X216687Y758843D01*
Y754843D01*
X215887D02*X217387D01*
X147165Y657189D02*Y653189D01*
X149165D01*
X150365Y655389D02*X151865D01*
X150365Y653189D02*X152365D01*
X150365Y657189D02*Y653189D01*
Y657189D02*X152365D01*
X154065D02*Y653189D01*
X155365Y657189D02*X156065Y656489D01*
Y653889D01*
X155365Y653189D02*X156065Y653889D01*
X153565Y653189D02*X155365D01*
X153565Y657189D02*X155365D01*
X158765D02*X159265Y656689D01*
X157765Y657189D02*X158765D01*
X157265Y656689D02*X157765Y657189D01*
X157265Y656689D02*Y653689D01*
X157765Y653189D01*
X158765Y655389D02*X159265Y654889D01*
X157265Y655389D02*X158765D01*
X157765Y653189D02*X158765D01*
X159265Y653689D01*
Y654889D02*Y653689D01*
X79803Y565929D02*Y561929D01*
X81803D01*
X83003Y564129D02*X84503D01*
X83003Y561929D02*X85003D01*
X83003Y565929D02*Y561929D01*
Y565929D02*X85003D01*
X86703D02*Y561929D01*
X88003Y565929D02*X88703Y565229D01*
Y562629D01*
X88003Y561929D02*X88703Y562629D01*
X86203Y561929D02*X88003D01*
X86203Y565929D02*X88003D01*
X89903Y565129D02*X90703Y565929D01*
Y561929D01*
X89903D02*X91403D01*
X92603Y562429D02*X93103Y561929D01*
X92603Y565429D02*Y562429D01*
Y565429D02*X93103Y565929D01*
X94103D01*
X94603Y565429D01*
Y562429D01*
X94103Y561929D02*X94603Y562429D01*
X93103Y561929D02*X94103D01*
X92603Y562929D02*X94603Y564929D01*
X141276Y581992D02*X143276D01*
X143776Y581492D01*
Y580492D01*
X143276Y579992D02*X143776Y580492D01*
X141776Y579992D02*X143276D01*
X141776Y581992D02*Y577992D01*
X142576Y579992D02*X143776Y577992D01*
X144976Y581192D02*X145776Y581992D01*
Y577992D01*
X144976D02*X146476D01*
X147676Y578492D02*X148176Y577992D01*
X147676Y581492D02*Y578492D01*
Y581492D02*X148176Y581992D01*
X149176D01*
X149676Y581492D01*
Y578492D01*
X149176Y577992D02*X149676Y578492D01*
X148176Y577992D02*X149176D01*
X147676Y578992D02*X149676Y580992D01*
X183236Y536370D02*X185236D01*
X185736Y536870D01*
Y538070D02*Y536870D01*
X185236Y538570D02*X185736Y538070D01*
X183736Y538570D02*X185236D01*
X183736Y540370D02*Y536370D01*
X183236Y540370D02*X185236D01*
X185736Y539870D01*
Y539070D01*
X185236Y538570D02*X185736Y539070D01*
X186936Y540370D02*Y536870D01*
X187436Y536370D01*
X188436D01*
X188936Y536870D01*
Y540370D02*Y536870D01*
X190136Y540370D02*X192136D01*
X191136D02*Y536370D01*
X193336Y539570D02*X194136Y540370D01*
Y536370D01*
X193336D02*X194836D01*
X177409Y511063D02*X178709D01*
X176709Y511763D02*X177409Y511063D01*
X176709Y514363D02*Y511763D01*
Y514363D02*X177409Y515063D01*
X178709D01*
X181409D02*X181909Y514563D01*
X180409Y515063D02*X181409D01*
X179909Y514563D02*X180409Y515063D01*
X179909Y514563D02*Y511563D01*
X180409Y511063D01*
X181409Y513263D02*X181909Y512763D01*
X179909Y513263D02*X181409D01*
X180409Y511063D02*X181409D01*
X181909Y511563D01*
Y512763D02*Y511563D01*
X188913Y511126D02*X190913D01*
X191413Y510626D01*
Y509626D01*
X190913Y509126D02*X191413Y509626D01*
X189413Y509126D02*X190913D01*
X189413Y511126D02*Y507126D01*
X190213Y509126D02*X191413Y507126D01*
X192613Y510626D02*X193113Y511126D01*
X194613D01*
X195113Y510626D01*
Y509626D01*
X192613Y507126D02*X195113Y509626D01*
X192613Y507126D02*X195113D01*
X196313Y508626D02*X198313Y511126D01*
X196313Y508626D02*X198813D01*
X198313Y511126D02*Y507126D01*
X237283Y534433D02*Y530433D01*
X239283D01*
X240483Y532633D02*X241983D01*
X240483Y530433D02*X242483D01*
X240483Y534433D02*Y530433D01*
Y534433D02*X242483D01*
X244183D02*Y530433D01*
X245483Y534433D02*X246183Y533733D01*
Y531133D01*
X245483Y530433D02*X246183Y531133D01*
X243683Y530433D02*X245483D01*
X243683Y534433D02*X245483D01*
X247383Y533633D02*X248183Y534433D01*
Y530433D01*
X247383D02*X248883D01*
X250083Y533933D02*X250583Y534433D01*
X251583D01*
X252083Y533933D01*
X251583Y530433D02*X252083Y530933D01*
X250583Y530433D02*X251583D01*
X250083Y530933D02*X250583Y530433D01*
Y532633D02*X251583D01*
X252083Y533933D02*Y533133D01*
Y532133D02*Y530933D01*
Y532133D02*X251583Y532633D01*
X252083Y533133D02*X251583Y532633D01*
X243639Y522937D02*X245639D01*
X246139Y522437D01*
Y521437D01*
X245639Y520937D02*X246139Y521437D01*
X244139Y520937D02*X245639D01*
X244139Y522937D02*Y518937D01*
X244939Y520937D02*X246139Y518937D01*
X247339Y522137D02*X248139Y522937D01*
Y518937D01*
X247339D02*X248839D01*
X250039Y522437D02*X250539Y522937D01*
X251539D01*
X252039Y522437D01*
X251539Y518937D02*X252039Y519437D01*
X250539Y518937D02*X251539D01*
X250039Y519437D02*X250539Y518937D01*
Y521137D02*X251539D01*
X252039Y522437D02*Y521637D01*
Y520637D02*Y519437D01*
Y520637D02*X251539Y521137D01*
X252039Y521637D02*X251539Y521137D01*
X296339Y565929D02*Y561929D01*
X298339D01*
X299539Y564129D02*X301039D01*
X299539Y561929D02*X301539D01*
X299539Y565929D02*Y561929D01*
Y565929D02*X301539D01*
X303239D02*Y561929D01*
X304539Y565929D02*X305239Y565229D01*
Y562629D01*
X304539Y561929D02*X305239Y562629D01*
X302739Y561929D02*X304539D01*
X302739Y565929D02*X304539D01*
X306439Y565129D02*X307239Y565929D01*
Y561929D01*
X306439D02*X307939D01*
X309139Y565129D02*X309939Y565929D01*
Y561929D01*
X309139D02*X310639D01*
X290883Y463882D02*X292883D01*
X293383Y463382D01*
Y462382D01*
X292883Y461882D02*X293383Y462382D01*
X291383Y461882D02*X292883D01*
X291383Y463882D02*Y459882D01*
X292183Y461882D02*X293383Y459882D01*
X294583Y463082D02*X295383Y463882D01*
Y459882D01*
X294583D02*X296083D01*
X297783D02*X299783Y463882D01*
X297283D02*X299783D01*
X275135Y483567D02*X277135D01*
X277635Y483067D01*
Y482067D01*
X277135Y481567D02*X277635Y482067D01*
X275635Y481567D02*X277135D01*
X275635Y483567D02*Y479567D01*
X276435Y481567D02*X277635Y479567D01*
X278835Y482767D02*X279635Y483567D01*
Y479567D01*
X278835D02*X280335D01*
X281535Y483567D02*X283535D01*
X281535D02*Y481567D01*
X282035Y482067D01*
X283035D01*
X283535Y481567D01*
Y480067D01*
X283035Y479567D02*X283535Y480067D01*
X282035Y479567D02*X283035D01*
X281535Y480067D02*X282035Y479567D01*
X127047Y518685D02*Y514685D01*
X129047D01*
X130247Y516885D02*X131747D01*
X130247Y514685D02*X132247D01*
X130247Y518685D02*Y514685D01*
Y518685D02*X132247D01*
X133947D02*Y514685D01*
X135247Y518685D02*X135947Y517985D01*
Y515385D01*
X135247Y514685D02*X135947Y515385D01*
X133447Y514685D02*X135247D01*
X133447Y518685D02*X135247D01*
X137147Y517885D02*X137947Y518685D01*
Y514685D01*
X137147D02*X138647D01*
X139847Y518185D02*X140347Y518685D01*
X141847D01*
X142347Y518185D01*
Y517185D01*
X139847Y514685D02*X142347Y517185D01*
X139847Y514685D02*X142347D01*
X100330Y474512D02*X102330D01*
X102830Y474012D01*
Y473012D01*
X102330Y472512D02*X102830Y473012D01*
X100830Y472512D02*X102330D01*
X100830Y474512D02*Y470512D01*
X101630Y472512D02*X102830Y470512D01*
X104030Y473712D02*X104830Y474512D01*
Y470512D01*
X104030D02*X105530D01*
X106730Y472012D02*X108730Y474512D01*
X106730Y472012D02*X109230D01*
X108730Y474512D02*Y470512D01*
X173079Y466181D02*X174379D01*
X172379Y466881D02*X173079Y466181D01*
X172379Y469481D02*Y466881D01*
Y469481D02*X173079Y470181D01*
X174379D01*
X175579Y467681D02*X177579Y470181D01*
X175579Y467681D02*X178079D01*
X177579Y470181D02*Y466181D01*
X124739Y490260D02*X126739D01*
X127239Y489760D01*
Y488760D01*
X126739Y488260D02*X127239Y488760D01*
X125239Y488260D02*X126739D01*
X125239Y490260D02*Y486260D01*
X126039Y488260D02*X127239Y486260D01*
X128439Y489460D02*X129239Y490260D01*
Y486260D01*
X128439D02*X129939D01*
X131139Y489760D02*X131639Y490260D01*
X133139D01*
X133639Y489760D01*
Y488760D01*
X131139Y486260D02*X133639Y488760D01*
X131139Y486260D02*X133639D01*
X233346Y652543D02*Y648543D01*
X235346D01*
X236546Y650743D02*X238046D01*
X236546Y648543D02*X238546D01*
X236546Y652543D02*Y648543D01*
Y652543D02*X238546D01*
X240246D02*Y648543D01*
X241546Y652543D02*X242246Y651843D01*
Y649243D01*
X241546Y648543D02*X242246Y649243D01*
X239746Y648543D02*X241546D01*
X239746Y652543D02*X241546D01*
X243946Y648543D02*X245946Y652543D01*
X243446D02*X245946D01*
X190882Y678055D02*X192882D01*
X193382Y677555D01*
Y676555D01*
X192882Y676055D02*X193382Y676555D01*
X191382Y676055D02*X192882D01*
X191382Y678055D02*Y674055D01*
X192182Y676055D02*X193382Y674055D01*
X194582Y677255D02*X195382Y678055D01*
Y674055D01*
X194582D02*X196082D01*
X214505Y650890D02*X216505D01*
X217005Y650390D01*
Y649390D01*
X216505Y648890D02*X217005Y649390D01*
X215005Y648890D02*X216505D01*
X215005Y650890D02*Y646890D01*
X215805Y648890D02*X217005Y646890D01*
X218205Y650890D02*X220205D01*
X218205D02*Y648890D01*
X218705Y649390D01*
X219705D01*
X220205Y648890D01*
Y647390D01*
X219705Y646890D02*X220205Y647390D01*
X218705Y646890D02*X219705D01*
X218205Y647390D02*X218705Y646890D01*
X214111Y627268D02*X216111D01*
X216611Y626768D01*
Y625768D01*
X216111Y625268D02*X216611Y625768D01*
X214611Y625268D02*X216111D01*
X214611Y627268D02*Y623268D01*
X215411Y625268D02*X216611Y623268D01*
X218311D02*X220311Y627268D01*
X217811D02*X220311D01*
X214111Y678055D02*X216111D01*
X216611Y677555D01*
Y676555D01*
X216111Y676055D02*X216611Y676555D01*
X214611Y676055D02*X216111D01*
X214611Y678055D02*Y674055D01*
X215411Y676055D02*X216611Y674055D01*
X217811Y677555D02*X218311Y678055D01*
X219311D01*
X219811Y677555D01*
X219311Y674055D02*X219811Y674555D01*
X218311Y674055D02*X219311D01*
X217811Y674555D02*X218311Y674055D01*
Y676255D02*X219311D01*
X219811Y677555D02*Y676755D01*
Y675755D02*Y674555D01*
Y675755D02*X219311Y676255D01*
X219811Y676755D02*X219311Y676255D01*
X167651Y678055D02*X169651D01*
X170151Y677555D01*
Y676555D01*
X169651Y676055D02*X170151Y676555D01*
X168151Y676055D02*X169651D01*
X168151Y678055D02*Y674055D01*
X168951Y676055D02*X170151Y674055D01*
X171351Y677555D02*X171851Y678055D01*
X173351D01*
X173851Y677555D01*
Y676555D01*
X171351Y674055D02*X173851Y676555D01*
X171351Y674055D02*X173851D01*
X167261Y658370D02*X169261D01*
X169761Y657870D01*
Y656870D01*
X169261Y656370D02*X169761Y656870D01*
X167761Y656370D02*X169261D01*
X167761Y658370D02*Y654370D01*
X168561Y656370D02*X169761Y654370D01*
X170961Y655870D02*X172961Y658370D01*
X170961Y655870D02*X173461D01*
X172961Y658370D02*Y654370D01*
X167654Y626874D02*X169654D01*
X170154Y626374D01*
Y625374D01*
X169654Y624874D02*X170154Y625374D01*
X168154Y624874D02*X169654D01*
X168154Y626874D02*Y622874D01*
X168954Y624874D02*X170154Y622874D01*
X172854Y626874D02*X173354Y626374D01*
X171854Y626874D02*X172854D01*
X171354Y626374D02*X171854Y626874D01*
X171354Y626374D02*Y623374D01*
X171854Y622874D01*
X172854Y625074D02*X173354Y624574D01*
X171354Y625074D02*X172854D01*
X171854Y622874D02*X172854D01*
X173354Y623374D01*
Y624574D02*Y623374D01*
X167261Y595378D02*X169261D01*
X169761Y594878D01*
Y593878D01*
X169261Y593378D02*X169761Y593878D01*
X167761Y593378D02*X169261D01*
X167761Y595378D02*Y591378D01*
X168561Y593378D02*X169761Y591378D01*
X170961Y591878D02*X171461Y591378D01*
X170961Y592678D02*Y591878D01*
Y592678D02*X171661Y593378D01*
X172261D01*
X172961Y592678D01*
Y591878D01*
X172461Y591378D02*X172961Y591878D01*
X171461Y591378D02*X172461D01*
X170961Y594078D02*X171661Y593378D01*
X170961Y594878D02*Y594078D01*
Y594878D02*X171461Y595378D01*
X172461D01*
X172961Y594878D01*
Y594078D01*
X172261Y593378D02*X172961Y594078D01*
X214505Y595378D02*X216505D01*
X217005Y594878D01*
Y593878D01*
X216505Y593378D02*X217005Y593878D01*
X215005Y593378D02*X216505D01*
X215005Y595378D02*Y591378D01*
X215805Y593378D02*X217005Y591378D01*
X218705D02*X220205Y593378D01*
Y594878D02*Y593378D01*
X219705Y595378D02*X220205Y594878D01*
X218705Y595378D02*X219705D01*
X218205Y594878D02*X218705Y595378D01*
X218205Y594878D02*Y593878D01*
X218705Y593378D01*
X220205D01*
X245607Y579630D02*X247607D01*
X248107Y579130D01*
Y578130D01*
X247607Y577630D02*X248107Y578130D01*
X246107Y577630D02*X247607D01*
X246107Y579630D02*Y575630D01*
X246907Y577630D02*X248107Y575630D01*
X249307Y578830D02*X250107Y579630D01*
Y575630D01*
X249307D02*X250807D01*
X252007Y578830D02*X252807Y579630D01*
Y575630D01*
X252007D02*X253507D01*
X143197Y304008D02*X145197D01*
X145697Y304508D01*
Y305708D02*Y304508D01*
X145197Y306208D02*X145697Y305708D01*
X143697Y306208D02*X145197D01*
X143697Y308008D02*Y304008D01*
X143197Y308008D02*X145197D01*
X145697Y307508D01*
Y306708D01*
X145197Y306208D02*X145697Y306708D01*
X146897Y307508D02*X147397Y308008D01*
X148897D01*
X149397Y307508D01*
Y306508D01*
X146897Y304008D02*X149397Y306508D01*
X146897Y304008D02*X149397D01*
X327835Y333646D02*Y329646D01*
X329835D01*
X331035Y331846D02*X332535D01*
X331035Y329646D02*X333035D01*
X331035Y333646D02*Y329646D01*
Y333646D02*X333035D01*
X334735D02*Y329646D01*
X336035Y333646D02*X336735Y332946D01*
Y330346D01*
X336035Y329646D02*X336735Y330346D01*
X334235Y329646D02*X336035D01*
X334235Y333646D02*X336035D01*
X337935Y333146D02*X338435Y333646D01*
X339935D01*
X340435Y333146D01*
Y332146D01*
X337935Y329646D02*X340435Y332146D01*
X337935Y329646D02*X340435D01*
X341635Y332846D02*X342435Y333646D01*
Y329646D01*
X341635D02*X343135D01*
X52244Y333646D02*Y329646D01*
X54244D01*
X55444Y331846D02*X56944D01*
X55444Y329646D02*X57444D01*
X55444Y333646D02*Y329646D01*
Y333646D02*X57444D01*
X59144D02*Y329646D01*
X60444Y333646D02*X61144Y332946D01*
Y330346D01*
X60444Y329646D02*X61144Y330346D01*
X58644Y329646D02*X60444D01*
X58644Y333646D02*X60444D01*
X62344Y333146D02*X62844Y333646D01*
X64344D01*
X64844Y333146D01*
Y332146D01*
X62344Y329646D02*X64844Y332146D01*
X62344Y329646D02*X64844D01*
X66044Y330146D02*X66544Y329646D01*
X66044Y333146D02*Y330146D01*
Y333146D02*X66544Y333646D01*
X67544D01*
X68044Y333146D01*
Y330146D01*
X67544Y329646D02*X68044Y330146D01*
X66544Y329646D02*X67544D01*
X66044Y330646D02*X68044Y332646D01*
X176732Y429103D02*Y427803D01*
X176032Y427103D02*X176732Y427803D01*
X173432Y427103D02*X176032D01*
X173432D02*X172732Y427803D01*
Y429103D02*Y427803D01*
X173532Y430303D02*X172732Y431103D01*
X176732D01*
Y431803D02*Y430303D01*
X177102Y412748D02*X179602Y416748D01*
X177102D02*X179602Y412748D01*
X180802Y415948D02*X181602Y416748D01*
Y412748D01*
X180802D02*X182302D01*
X163677Y405874D02*Y403874D01*
Y405874D02*X164177Y406374D01*
X165177D01*
X165677Y405874D02*X165177Y406374D01*
X165677Y405874D02*Y404374D01*
X163677D02*X167677D01*
X165677Y405174D02*X167677Y406374D01*
X164177Y407574D02*X163677Y408074D01*
Y409574D02*Y408074D01*
Y409574D02*X164177Y410074D01*
X165177D01*
X167677Y407574D02*X165177Y410074D01*
X167677D02*Y407574D01*
X164177Y411274D02*X163677Y411774D01*
Y412774D02*Y411774D01*
Y412774D02*X164177Y413274D01*
X167677Y412774D02*X167177Y413274D01*
X167677Y412774D02*Y411774D01*
X167177Y411274D02*X167677Y411774D01*
X165477Y412774D02*Y411774D01*
X164177Y413274D02*X164977D01*
X165977D02*X167177D01*
X165977D02*X165477Y412774D01*
X164977Y413274D02*X165477Y412774D01*
X155409Y405480D02*Y403480D01*
Y405480D02*X155909Y405980D01*
X156909D01*
X157409Y405480D02*X156909Y405980D01*
X157409Y405480D02*Y403980D01*
X155409D02*X159409D01*
X157409Y404780D02*X159409Y405980D01*
X155909Y407180D02*X155409Y407680D01*
Y409180D02*Y407680D01*
Y409180D02*X155909Y409680D01*
X156909D01*
X159409Y407180D02*X156909Y409680D01*
X159409D02*Y407180D01*
X155909Y410880D02*X155409Y411380D01*
Y412880D02*Y411380D01*
Y412880D02*X155909Y413380D01*
X156909D01*
X159409Y410880D02*X156909Y413380D01*
X159409D02*Y410880D01*
X116470Y348134D02*X118470D01*
X118970Y347634D01*
Y346634D01*
X118470Y346134D02*X118970Y346634D01*
X116970Y346134D02*X118470D01*
X116970Y348134D02*Y344134D01*
X117770Y346134D02*X118970Y344134D01*
X120170Y347634D02*X120670Y348134D01*
X122170D01*
X122670Y347634D01*
Y346634D01*
X120170Y344134D02*X122670Y346634D01*
X120170Y344134D02*X122670D01*
X123870Y344634D02*X124370Y344134D01*
X123870Y347634D02*Y344634D01*
Y347634D02*X124370Y348134D01*
X125370D01*
X125870Y347634D01*
Y344634D01*
X125370Y344134D02*X125870Y344634D01*
X124370Y344134D02*X125370D01*
X123870Y345134D02*X125870Y347134D01*
X117654Y364276D02*X119654D01*
X120154Y363776D01*
Y362776D01*
X119654Y362276D02*X120154Y362776D01*
X118154Y362276D02*X119654D01*
X118154Y364276D02*Y360276D01*
X118954Y362276D02*X120154Y360276D01*
X121354Y363476D02*X122154Y364276D01*
Y360276D01*
X121354D02*X122854D01*
X124054Y360776D02*X124554Y360276D01*
X124054Y361576D02*Y360776D01*
Y361576D02*X124754Y362276D01*
X125354D01*
X126054Y361576D01*
Y360776D01*
X125554Y360276D02*X126054Y360776D01*
X124554Y360276D02*X125554D01*
X124054Y362976D02*X124754Y362276D01*
X124054Y363776D02*Y362976D01*
Y363776D02*X124554Y364276D01*
X125554D01*
X126054Y363776D01*
Y362976D01*
X125354Y362276D02*X126054Y362976D01*
X123700Y383142D02*X125000D01*
X123000Y383842D02*X123700Y383142D01*
X123000Y386442D02*Y383842D01*
Y386442D02*X123700Y387142D01*
X125000D01*
X126200Y386642D02*Y383642D01*
Y386642D02*X126700Y387142D01*
X127700D01*
X128200Y386642D01*
Y383642D01*
X127700Y383142D02*X128200Y383642D01*
X126700Y383142D02*X127700D01*
X126200Y383642D02*X126700Y383142D01*
X129400Y387142D02*Y383142D01*
Y387142D02*X131900Y383142D01*
Y387142D02*Y383142D01*
X133100Y387142D02*Y383142D01*
Y387142D02*X135600Y383142D01*
Y387142D02*Y383142D01*
X136800Y386342D02*X137600Y387142D01*
Y383142D01*
X136800D02*X138300D01*
X271591Y396953D02*X273591D01*
X274091Y396453D01*
Y395453D01*
X273591Y394953D02*X274091Y395453D01*
X272091Y394953D02*X273591D01*
X272091Y396953D02*Y392953D01*
X272891Y394953D02*X274091Y392953D01*
X275291Y396153D02*X276091Y396953D01*
Y392953D01*
X275291D02*X276791D01*
X278491D02*X279991Y394953D01*
Y396453D02*Y394953D01*
X279491Y396953D02*X279991Y396453D01*
X278491Y396953D02*X279491D01*
X277991Y396453D02*X278491Y396953D01*
X277991Y396453D02*Y395453D01*
X278491Y394953D01*
X279991D01*
X194339Y379961D02*X195639D01*
X193639Y380661D02*X194339Y379961D01*
X193639Y383261D02*Y380661D01*
Y383261D02*X194339Y383961D01*
X195639D01*
X196839Y383461D02*X197339Y383961D01*
X198839D01*
X199339Y383461D01*
Y382461D01*
X196839Y379961D02*X199339Y382461D01*
X196839Y379961D02*X199339D01*
X211268D02*X212568D01*
X210568Y380661D02*X211268Y379961D01*
X210568Y383261D02*Y380661D01*
Y383261D02*X211268Y383961D01*
X212568D01*
X213768Y383461D02*X214268Y383961D01*
X215268D01*
X215768Y383461D01*
X215268Y379961D02*X215768Y380461D01*
X214268Y379961D02*X215268D01*
X213768Y380461D02*X214268Y379961D01*
Y382161D02*X215268D01*
X215768Y383461D02*Y382661D01*
Y381661D02*Y380461D01*
Y381661D02*X215268Y382161D01*
X215768Y382661D02*X215268Y382161D01*
X316024Y451756D02*Y447756D01*
X318024D01*
X319224Y449956D02*X320724D01*
X319224Y447756D02*X321224D01*
X319224Y451756D02*Y447756D01*
Y451756D02*X321224D01*
X322924D02*Y447756D01*
X324224Y451756D02*X324924Y451056D01*
Y448456D01*
X324224Y447756D02*X324924Y448456D01*
X322424Y447756D02*X324224D01*
X322424Y451756D02*X324224D01*
X326124Y450956D02*X326924Y451756D01*
Y447756D01*
X326124D02*X327624D01*
X329324D02*X331324Y451756D01*
X328824D02*X331324D01*
X60118Y447819D02*Y443819D01*
X62118D01*
X63318Y446019D02*X64818D01*
X63318Y443819D02*X65318D01*
X63318Y447819D02*Y443819D01*
Y447819D02*X65318D01*
X67018D02*Y443819D01*
X68318Y447819D02*X69018Y447119D01*
Y444519D01*
X68318Y443819D02*X69018Y444519D01*
X66518Y443819D02*X68318D01*
X66518Y447819D02*X68318D01*
X70218Y447019D02*X71018Y447819D01*
Y443819D01*
X70218D02*X71718D01*
X74418Y447819D02*X74918Y447319D01*
X73418Y447819D02*X74418D01*
X72918Y447319D02*X73418Y447819D01*
X72918Y447319D02*Y444319D01*
X73418Y443819D01*
X74418Y446019D02*X74918Y445519D01*
X72918Y446019D02*X74418D01*
X73418Y443819D02*X74418D01*
X74918Y444319D01*
Y445519D02*Y444319D01*
X189700Y438292D02*Y434792D01*
X190200Y434292D01*
X191200D01*
X191700Y434792D01*
Y438292D02*Y434792D01*
X192900Y437492D02*X193700Y438292D01*
Y434292D01*
X192900D02*X194400D01*
X101116Y454827D02*X103116D01*
X103616Y454327D01*
Y453327D01*
X103116Y452827D02*X103616Y453327D01*
X101616Y452827D02*X103116D01*
X101616Y454827D02*Y450827D01*
X102416Y452827D02*X103616Y450827D01*
X104816Y454027D02*X105616Y454827D01*
Y450827D01*
X104816D02*X106316D01*
X109016Y454827D02*X109516Y454327D01*
X108016Y454827D02*X109016D01*
X107516Y454327D02*X108016Y454827D01*
X107516Y454327D02*Y451327D01*
X108016Y450827D01*
X109016Y453027D02*X109516Y452527D01*
X107516Y453027D02*X109016D01*
X108016Y450827D02*X109016D01*
X109516Y451327D01*
Y452527D02*Y451327D01*
X271198Y369394D02*X273198D01*
X273698Y368894D01*
Y367894D01*
X273198Y367394D02*X273698Y367894D01*
X271698Y367394D02*X273198D01*
X271698Y369394D02*Y365394D01*
X272498Y367394D02*X273698Y365394D01*
X274898Y368894D02*X275398Y369394D01*
X276898D01*
X277398Y368894D01*
Y367894D01*
X274898Y365394D02*X277398Y367894D01*
X274898Y365394D02*X277398D01*
X278598Y368594D02*X279398Y369394D01*
Y365394D01*
X278598D02*X280098D01*
M02*
