G04 start of page 12 for group -3984 idx -3984 *
G04 Title: (unknown), fab *
G04 Creator: pcb 20140316 *
G04 CreationDate: Wed 05 Dec 2018 13:19:10 GMT UTC *
G04 For: david *
G04 Format: Gerber/RS-274X *
G04 PCB-Dimensions (mil): 5803.15 7874.02 *
G04 PCB-Coordinate-Origin: lower left *
%MOIN*%
%FSLAX25Y25*%
%LNFAB*%
%ADD100C,0.0100*%
%ADD99C,0.0075*%
%ADD98C,0.0060*%
%ADD97C,0.0001*%
%ADD96R,0.0080X0.0080*%
G54D96*X196850Y732283D02*Y729083D01*
G54D97*G36*
X196304Y732430D02*X199770Y734430D01*
X200170Y733737D01*
X196704Y731737D01*
X196304Y732430D01*
G37*
G36*
X196997Y731737D02*X193531Y733737D01*
X193930Y734430D01*
X197397Y732430D01*
X196997Y731737D01*
G37*
G54D96*X195250Y732283D02*G75*G03X198450Y732283I1600J0D01*G01*
G75*G03X195250Y732283I-1600J0D01*G01*
X15000Y798652D02*Y795452D01*
G54D97*G36*
X14454Y798798D02*X17920Y800798D01*
X18320Y800105D01*
X14853Y798105D01*
X14454Y798798D01*
G37*
G36*
X15147Y798105D02*X11680Y800105D01*
X12080Y800798D01*
X15546Y798798D01*
X15147Y798105D01*
G37*
G54D96*X13400Y798652D02*G75*G03X16600Y798652I1600J0D01*G01*
G75*G03X13400Y798652I-1600J0D01*G01*
G54D98*X135000Y800902D02*X136500Y797902D01*
X138000Y800902D01*
X136500Y797902D02*Y794902D01*
X139800Y798202D02*X142050D01*
X139800Y794902D02*X142800D01*
X139800Y800902D02*Y794902D01*
Y800902D02*X142800D01*
X147600D02*X148350Y800152D01*
X145350Y800902D02*X147600D01*
X144600Y800152D02*X145350Y800902D01*
X144600Y800152D02*Y798652D01*
X145350Y797902D01*
X147600D01*
X148350Y797152D01*
Y795652D01*
X147600Y794902D02*X148350Y795652D01*
X145350Y794902D02*X147600D01*
X144600Y795652D02*X145350Y794902D01*
X98000Y799702D02*X99200Y800902D01*
Y794902D01*
X98000D02*X100250D01*
X45000Y795652D02*X45750Y794902D01*
X45000Y800152D02*Y795652D01*
Y800152D02*X45750Y800902D01*
X47250D01*
X48000Y800152D01*
Y795652D01*
X47250Y794902D02*X48000Y795652D01*
X45750Y794902D02*X47250D01*
X45000Y796402D02*X48000Y799402D01*
X49800Y794902D02*X50550D01*
X52350Y799702D02*X53550Y800902D01*
Y794902D01*
X52350D02*X54600D01*
X57150D02*X59400Y797902D01*
Y800152D02*Y797902D01*
X58650Y800902D02*X59400Y800152D01*
X57150Y800902D02*X58650D01*
X56400Y800152D02*X57150Y800902D01*
X56400Y800152D02*Y798652D01*
X57150Y797902D01*
X59400D01*
X61950Y794902D02*X64950Y800902D01*
X61200D02*X64950D01*
X125960Y420891D02*X129160D01*
X125960D02*Y417691D01*
X129160D01*
Y420891D02*Y417691D01*
X125960Y393333D02*X129160D01*
X125960D02*Y390133D01*
X129160D01*
Y393333D02*Y390133D01*
X13400Y815252D02*X16600D01*
X13400D02*Y812052D01*
X16600D01*
Y815252D02*Y812052D01*
X135000Y815902D02*X136500Y812902D01*
X138000Y815902D01*
X136500Y812902D02*Y809902D01*
X139800Y813202D02*X142050D01*
X139800Y809902D02*X142800D01*
X139800Y815902D02*Y809902D01*
Y815902D02*X142800D01*
X147600D02*X148350Y815152D01*
X145350Y815902D02*X147600D01*
X144600Y815152D02*X145350Y815902D01*
X144600Y815152D02*Y813652D01*
X145350Y812902D01*
X147600D01*
X148350Y812152D01*
Y810652D01*
X147600Y809902D02*X148350Y810652D01*
X145350Y809902D02*X147600D01*
X144600Y810652D02*X145350Y809902D01*
X98000Y815152D02*X98750Y815902D01*
X101000D01*
X101750Y815152D01*
Y813652D01*
X98000Y809902D02*X101750Y813652D01*
X98000Y809902D02*X101750D01*
X45000Y810652D02*X45750Y809902D01*
X45000Y815152D02*Y810652D01*
Y815152D02*X45750Y815902D01*
X47250D01*
X48000Y815152D01*
Y810652D01*
X47250Y809902D02*X48000Y810652D01*
X45750Y809902D02*X47250D01*
X45000Y811402D02*X48000Y814402D01*
X49800Y809902D02*X50550D01*
X52350Y810652D02*X53100Y809902D01*
X52350Y815152D02*Y810652D01*
Y815152D02*X53100Y815902D01*
X54600D01*
X55350Y815152D01*
Y810652D01*
X54600Y809902D02*X55350Y810652D01*
X53100Y809902D02*X54600D01*
X52350Y811402D02*X55350Y814402D01*
X57150Y812152D02*X60150Y815902D01*
X57150Y812152D02*X60900D01*
X60150Y815902D02*Y809902D01*
X62700Y815152D02*X63450Y815902D01*
X64950D01*
X65700Y815152D01*
X64950Y809902D02*X65700Y810652D01*
X63450Y809902D02*X64950D01*
X62700Y810652D02*X63450Y809902D01*
Y813202D02*X64950D01*
X65700Y815152D02*Y813952D01*
Y812452D02*Y810652D01*
Y812452D02*X64950Y813202D01*
X65700Y813952D02*X64950Y813202D01*
X137389Y415354D02*G75*G03X138989Y415354I800J0D01*G01*
G75*G03X137389Y415354I-800J0D01*G01*
Y395670D02*G75*G03X138989Y395670I800J0D01*G01*
G75*G03X137389Y395670I-800J0D01*G01*
X14200Y828652D02*G75*G03X15800Y828652I800J0D01*G01*
G75*G03X14200Y828652I-800J0D01*G01*
X135000Y830902D02*X136500Y827902D01*
X138000Y830902D01*
X136500Y827902D02*Y824902D01*
X139800Y828202D02*X142050D01*
X139800Y824902D02*X142800D01*
X139800Y830902D02*Y824902D01*
Y830902D02*X142800D01*
X147600D02*X148350Y830152D01*
X145350Y830902D02*X147600D01*
X144600Y830152D02*X145350Y830902D01*
X144600Y830152D02*Y828652D01*
X145350Y827902D01*
X147600D01*
X148350Y827152D01*
Y825652D01*
X147600Y824902D02*X148350Y825652D01*
X145350Y824902D02*X147600D01*
X144600Y825652D02*X145350Y824902D01*
X98000Y830152D02*X98750Y830902D01*
X101000D01*
X101750Y830152D01*
Y828652D01*
X98000Y824902D02*X101750Y828652D01*
X98000Y824902D02*X101750D01*
X45000Y825652D02*X45750Y824902D01*
X45000Y830152D02*Y825652D01*
Y830152D02*X45750Y830902D01*
X47250D01*
X48000Y830152D01*
Y825652D01*
X47250Y824902D02*X48000Y825652D01*
X45750Y824902D02*X47250D01*
X45000Y826402D02*X48000Y829402D01*
X49800Y824902D02*X50550D01*
X52350Y825652D02*X53100Y824902D01*
X52350Y830152D02*Y825652D01*
Y830152D02*X53100Y830902D01*
X54600D01*
X55350Y830152D01*
Y825652D01*
X54600Y824902D02*X55350Y825652D01*
X53100Y824902D02*X54600D01*
X52350Y826402D02*X55350Y829402D01*
X57150Y830152D02*X57900Y830902D01*
X59400D01*
X60150Y830152D01*
X59400Y824902D02*X60150Y825652D01*
X57900Y824902D02*X59400D01*
X57150Y825652D02*X57900Y824902D01*
Y828202D02*X59400D01*
X60150Y830152D02*Y828952D01*
Y827452D02*Y825652D01*
Y827452D02*X59400Y828202D01*
X60150Y828952D02*X59400Y828202D01*
X61950Y830152D02*X62700Y830902D01*
X64200D01*
X64950Y830152D01*
X64200Y824902D02*X64950Y825652D01*
X62700Y824902D02*X64200D01*
X61950Y825652D02*X62700Y824902D01*
Y828202D02*X64200D01*
X64950Y830152D02*Y828952D01*
Y827452D02*Y825652D01*
Y827452D02*X64200Y828202D01*
X64950Y828952D02*X64200Y828202D01*
X353131Y331909D02*X355531Y329509D01*
X353131D02*X355531Y331909D01*
X363131D02*X365531Y329509D01*
X363131D02*X365531Y331909D01*
X313761Y367342D02*X316161Y364942D01*
X313761D02*X316161Y367342D01*
X323761D02*X326161Y364942D01*
X323761D02*X326161Y367342D01*
X34233Y331909D02*X36633Y329509D01*
X34233D02*X36633Y331909D01*
X44233D02*X46633Y329509D01*
X44233D02*X46633Y331909D01*
X77540Y367342D02*X79940Y364942D01*
X77540D02*X79940Y367342D01*
X87540D02*X89940Y364942D01*
X87540D02*X89940Y367342D01*
X42107Y450019D02*X44507Y447619D01*
X42107D02*X44507Y450019D01*
X52107D02*X54507Y447619D01*
X52107D02*X54507Y450019D01*
X341320D02*X343720Y447619D01*
X341320D02*X343720Y450019D01*
X351320D02*X353720Y447619D01*
X351320D02*X353720Y450019D01*
X301950Y489389D02*X304350Y486989D01*
X301950D02*X304350Y489389D01*
X311950D02*X314350Y486989D01*
X311950D02*X314350Y489389D01*
X262580Y532696D02*X264980Y530296D01*
X262580D02*X264980Y532696D01*
X272580D02*X274980Y530296D01*
X272580D02*X274980Y532696D01*
X81477Y489389D02*X83877Y486989D01*
X81477D02*X83877Y489389D01*
X91477D02*X93877Y486989D01*
X91477D02*X93877Y489389D01*
X120847Y532696D02*X123247Y530296D01*
X120847D02*X123247Y532696D01*
X130847D02*X133247Y530296D01*
X130847D02*X133247Y532696D01*
X61792Y568129D02*X64192Y565729D01*
X61792D02*X64192Y568129D01*
X71792D02*X74192Y565729D01*
X71792D02*X74192Y568129D01*
X321635D02*X324035Y565729D01*
X321635D02*X324035Y568129D01*
X331635D02*X334035Y565729D01*
X331635D02*X334035Y568129D01*
X286202Y611436D02*X288602Y609036D01*
X286202D02*X288602Y611436D01*
X296202D02*X298602Y609036D01*
X296202D02*X298602Y611436D01*
X254706Y654743D02*X257106Y652343D01*
X254706D02*X257106Y654743D01*
X264706D02*X267106Y652343D01*
X264706D02*X267106Y654743D01*
X97225Y611436D02*X99625Y609036D01*
X97225D02*X99625Y611436D01*
X107225D02*X109625Y609036D01*
X107225D02*X109625Y611436D01*
X128721Y654743D02*X131121Y652343D01*
X128721D02*X131121Y654743D01*
X138721D02*X141121Y652343D01*
X138721D02*X141121Y654743D01*
X109036Y686239D02*X111436Y683839D01*
X109036D02*X111436Y686239D01*
X119036D02*X121436Y683839D01*
X119036D02*X121436Y686239D01*
X274391D02*X276791Y683839D01*
X274391D02*X276791Y686239D01*
X284391D02*X286791Y683839D01*
X284391D02*X286791Y686239D01*
X238957Y721672D02*X241357Y719272D01*
X238957D02*X241357Y721672D01*
X248957D02*X251357Y719272D01*
X248957D02*X251357Y721672D01*
X191713Y768917D02*X194113Y766517D01*
X191713D02*X194113Y768917D01*
X201713D02*X204113Y766517D01*
X201713D02*X204113Y768917D01*
X144469Y721672D02*X146869Y719272D01*
X144469D02*X146869Y721672D01*
X154469D02*X156869Y719272D01*
X154469D02*X156869Y721672D01*
X13800Y844852D02*X16200Y842452D01*
X13800D02*X16200Y844852D01*
X135000Y845902D02*X136500Y842902D01*
X138000Y845902D01*
X136500Y842902D02*Y839902D01*
X139800Y843202D02*X142050D01*
X139800Y839902D02*X142800D01*
X139800Y845902D02*Y839902D01*
Y845902D02*X142800D01*
X147600D02*X148350Y845152D01*
X145350Y845902D02*X147600D01*
X144600Y845152D02*X145350Y845902D01*
X144600Y845152D02*Y843652D01*
X145350Y842902D01*
X147600D01*
X148350Y842152D01*
Y840652D01*
X147600Y839902D02*X148350Y840652D01*
X145350Y839902D02*X147600D01*
X144600Y840652D02*X145350Y839902D01*
X98000Y842152D02*X101000Y845902D01*
X98000Y842152D02*X101750D01*
X101000Y845902D02*Y839902D01*
X103550Y845152D02*X104300Y845902D01*
X106550D01*
X107300Y845152D01*
Y843652D01*
X103550Y839902D02*X107300Y843652D01*
X103550Y839902D02*X107300D01*
X45000Y840652D02*X45750Y839902D01*
X45000Y845152D02*Y840652D01*
Y845152D02*X45750Y845902D01*
X47250D01*
X48000Y845152D01*
Y840652D01*
X47250Y839902D02*X48000Y840652D01*
X45750Y839902D02*X47250D01*
X45000Y841402D02*X48000Y844402D01*
X49800Y839902D02*X50550D01*
X52350Y840652D02*X53100Y839902D01*
X52350Y845152D02*Y840652D01*
Y845152D02*X53100Y845902D01*
X54600D01*
X55350Y845152D01*
Y840652D01*
X54600Y839902D02*X55350Y840652D01*
X53100Y839902D02*X54600D01*
X52350Y841402D02*X55350Y844402D01*
X57150Y845152D02*X57900Y845902D01*
X60150D01*
X60900Y845152D01*
Y843652D01*
X57150Y839902D02*X60900Y843652D01*
X57150Y839902D02*X60900D01*
X62700Y840652D02*X63450Y839902D01*
X62700Y841852D02*Y840652D01*
Y841852D02*X63750Y842902D01*
X64650D01*
X65700Y841852D01*
Y840652D01*
X64950Y839902D02*X65700Y840652D01*
X63450Y839902D02*X64950D01*
X62700Y843952D02*X63750Y842902D01*
X62700Y845152D02*Y843952D01*
Y845152D02*X63450Y845902D01*
X64950D01*
X65700Y845152D01*
Y843952D01*
X64650Y842902D02*X65700Y843952D01*
X202756Y445694D02*Y442494D01*
X201156Y444094D02*X204356D01*
X147638Y439395D02*Y436195D01*
X146038Y437795D02*X149238D01*
X175197Y439395D02*Y436195D01*
X173597Y437795D02*X176797D01*
X200394Y459474D02*Y456274D01*
X198794Y457874D02*X201994D01*
X181102Y422072D02*Y418872D01*
X179502Y420472D02*X182702D01*
X164567Y461836D02*Y458636D01*
X162967Y460236D02*X166167D01*
X175591Y513411D02*Y510211D01*
X173991Y511811D02*X177191D01*
X178346Y540970D02*Y537770D01*
X176746Y539370D02*X179946D01*
X214961Y547663D02*Y544463D01*
X213361Y546063D02*X216561D01*
X131890Y372466D02*Y369266D01*
X130290Y370866D02*X133490D01*
X158661Y522466D02*Y519266D01*
X157061Y520866D02*X160261D01*
X201181Y514592D02*Y511392D01*
X199581Y512992D02*X202781D01*
X164370Y366757D02*Y363557D01*
X162770Y365157D02*X165970D01*
X226378Y366757D02*Y363557D01*
X224778Y365157D02*X227978D01*
X151575Y396285D02*Y393085D01*
X149975Y394685D02*X153175D01*
X153543Y433687D02*Y430487D01*
X151943Y432087D02*X155143D01*
X153543Y446482D02*Y443282D01*
X151943Y444882D02*X155143D01*
X158465Y453372D02*Y450172D01*
X156865Y451772D02*X160065D01*
X179134Y445498D02*Y442298D01*
X177534Y443898D02*X180734D01*
X189961Y433687D02*Y430487D01*
X188361Y432087D02*X191561D01*
X210630Y421876D02*Y418676D01*
X209030Y420276D02*X212230D01*
X221457Y416954D02*Y413754D01*
X219857Y415354D02*X223057D01*
X195866Y383490D02*Y380290D01*
X194266Y381890D02*X197466D01*
X205709Y395301D02*Y392101D01*
X204109Y393701D02*X207309D01*
X212598Y383490D02*Y380290D01*
X210998Y381890D02*X214198D01*
X15000Y860252D02*Y857052D01*
X13400Y858652D02*X16600D01*
X135000Y860902D02*X136500Y857902D01*
X138000Y860902D01*
X136500Y857902D02*Y854902D01*
X139800Y858202D02*X142050D01*
X139800Y854902D02*X142800D01*
X139800Y860902D02*Y854902D01*
Y860902D02*X142800D01*
X147600D02*X148350Y860152D01*
X145350Y860902D02*X147600D01*
X144600Y860152D02*X145350Y860902D01*
X144600Y860152D02*Y858652D01*
X145350Y857902D01*
X147600D01*
X148350Y857152D01*
Y855652D01*
X147600Y854902D02*X148350Y855652D01*
X145350Y854902D02*X147600D01*
X144600Y855652D02*X145350Y854902D01*
X98000Y860152D02*X98750Y860902D01*
X101000D01*
X101750Y860152D01*
Y858652D01*
X98000Y854902D02*X101750Y858652D01*
X98000Y854902D02*X101750D01*
X103550Y860902D02*X106550D01*
X103550D02*Y857902D01*
X104300Y858652D01*
X105800D01*
X106550Y857902D01*
Y855652D01*
X105800Y854902D02*X106550Y855652D01*
X104300Y854902D02*X105800D01*
X103550Y855652D02*X104300Y854902D01*
X45000Y855652D02*X45750Y854902D01*
X45000Y860152D02*Y855652D01*
Y860152D02*X45750Y860902D01*
X47250D01*
X48000Y860152D01*
Y855652D01*
X47250Y854902D02*X48000Y855652D01*
X45750Y854902D02*X47250D01*
X45000Y856402D02*X48000Y859402D01*
X49800Y854902D02*X50550D01*
X52350Y855652D02*X53100Y854902D01*
X52350Y860152D02*Y855652D01*
Y860152D02*X53100Y860902D01*
X54600D01*
X55350Y860152D01*
Y855652D01*
X54600Y854902D02*X55350Y855652D01*
X53100Y854902D02*X54600D01*
X52350Y856402D02*X55350Y859402D01*
X57150Y860152D02*X57900Y860902D01*
X60150D01*
X60900Y860152D01*
Y858652D01*
X57150Y854902D02*X60900Y858652D01*
X57150Y854902D02*X60900D01*
X62700Y855652D02*X63450Y854902D01*
X62700Y860152D02*Y855652D01*
Y860152D02*X63450Y860902D01*
X64950D01*
X65700Y860152D01*
Y855652D01*
X64950Y854902D02*X65700Y855652D01*
X63450Y854902D02*X64950D01*
X62700Y856402D02*X65700Y859402D01*
X199213Y488976D02*Y487376D01*
Y488976D02*X200599Y489776D01*
X199213Y488976D02*X197826Y489776D01*
X159843Y488976D02*Y487376D01*
Y488976D02*X161229Y489776D01*
X159843Y488976D02*X158456Y489776D01*
X148031Y477559D02*Y475959D01*
Y477559D02*X149418Y478359D01*
X148031Y477559D02*X146645Y478359D01*
X214173Y455906D02*Y454306D01*
Y455906D02*X215560Y456706D01*
X214173Y455906D02*X212787Y456706D01*
X156299Y469685D02*Y468085D01*
Y469685D02*X157686Y470485D01*
X156299Y469685D02*X154913Y470485D01*
X218898Y450394D02*Y448794D01*
Y450394D02*X220284Y451194D01*
X218898Y450394D02*X217511Y451194D01*
X238976Y427559D02*Y425959D01*
Y427559D02*X240363Y428359D01*
X238976Y427559D02*X237590Y428359D01*
X238976Y448031D02*Y446431D01*
Y448031D02*X240363Y448831D01*
X238976Y448031D02*X237590Y448831D01*
X245276Y429921D02*Y428321D01*
Y429921D02*X246662Y430721D01*
X245276Y429921D02*X243889Y430721D01*
X245276Y455512D02*Y453912D01*
Y455512D02*X246662Y456312D01*
X245276Y455512D02*X243889Y456312D01*
X254331Y433071D02*Y431471D01*
Y433071D02*X255717Y433871D01*
X254331Y433071D02*X252944Y433871D01*
X261811Y442913D02*Y441313D01*
Y442913D02*X263198Y443713D01*
X261811Y442913D02*X260424Y443713D01*
X261811Y457874D02*Y456274D01*
Y457874D02*X263198Y458674D01*
X261811Y457874D02*X260424Y458674D01*
X250000Y450000D02*Y448400D01*
Y450000D02*X251387Y450800D01*
X250000Y450000D02*X248613Y450800D01*
X250000Y410630D02*Y409030D01*
Y410630D02*X251387Y411430D01*
X250000Y410630D02*X248613Y411430D01*
X249213Y393307D02*Y391707D01*
Y393307D02*X250599Y394107D01*
X249213Y393307D02*X247826Y394107D01*
X237402Y459055D02*Y457455D01*
Y459055D02*X238788Y459855D01*
X237402Y459055D02*X236015Y459855D01*
X169685Y561024D02*Y559424D01*
Y561024D02*X171072Y561824D01*
X169685Y561024D02*X168298Y561824D01*
X243307Y561024D02*Y559424D01*
Y561024D02*X244694Y561824D01*
X243307Y561024D02*X241920Y561824D01*
X205906Y494094D02*Y492494D01*
Y494094D02*X207292Y494894D01*
X205906Y494094D02*X204519Y494894D01*
X242913Y504331D02*Y502731D01*
Y504331D02*X244300Y505131D01*
X242913Y504331D02*X241527Y505131D01*
X218504Y499606D02*Y498006D01*
Y499606D02*X219891Y500406D01*
X218504Y499606D02*X217117Y500406D01*
X188583Y555512D02*Y553912D01*
Y555512D02*X189969Y556312D01*
X188583Y555512D02*X187196Y556312D01*
X195669Y556693D02*Y555093D01*
Y556693D02*X197056Y557493D01*
X195669Y556693D02*X194283Y557493D01*
X226378Y498425D02*Y496825D01*
Y498425D02*X227765Y499225D01*
X226378Y498425D02*X224991Y499225D01*
X204331Y578346D02*Y576746D01*
Y578346D02*X205717Y579146D01*
X204331Y578346D02*X202944Y579146D01*
X210236Y664961D02*Y663361D01*
Y664961D02*X211623Y665761D01*
X210236Y664961D02*X208850Y665761D01*
X210236Y566535D02*Y564935D01*
Y566535D02*X211623Y567335D01*
X210236Y566535D02*X208850Y567335D01*
X225984Y631102D02*Y629502D01*
Y631102D02*X227371Y631902D01*
X225984Y631102D02*X224598Y631902D01*
X202362Y568898D02*Y567298D01*
Y568898D02*X203749Y569698D01*
X202362Y568898D02*X200976Y569698D01*
X215748Y608268D02*Y606668D01*
Y608268D02*X217135Y609068D01*
X215748Y608268D02*X214361Y609068D01*
X254331Y471654D02*Y470054D01*
Y471654D02*X255717Y472454D01*
X254331Y471654D02*X252944Y472454D01*
X15000Y873652D02*Y872052D01*
Y873652D02*X16387Y874452D01*
X15000Y873652D02*X13613Y874452D01*
X135000Y875902D02*X136500Y872902D01*
X138000Y875902D01*
X136500Y872902D02*Y869902D01*
X139800Y873202D02*X142050D01*
X139800Y869902D02*X142800D01*
X139800Y875902D02*Y869902D01*
Y875902D02*X142800D01*
X147600D02*X148350Y875152D01*
X145350Y875902D02*X147600D01*
X144600Y875152D02*X145350Y875902D01*
X144600Y875152D02*Y873652D01*
X145350Y872902D01*
X147600D01*
X148350Y872152D01*
Y870652D01*
X147600Y869902D02*X148350Y870652D01*
X145350Y869902D02*X147600D01*
X144600Y870652D02*X145350Y869902D01*
X98000Y875152D02*X98750Y875902D01*
X100250D01*
X101000Y875152D01*
X100250Y869902D02*X101000Y870652D01*
X98750Y869902D02*X100250D01*
X98000Y870652D02*X98750Y869902D01*
Y873202D02*X100250D01*
X101000Y875152D02*Y873952D01*
Y872452D02*Y870652D01*
Y872452D02*X100250Y873202D01*
X101000Y873952D02*X100250Y873202D01*
X102800Y875152D02*X103550Y875902D01*
X105800D01*
X106550Y875152D01*
Y873652D01*
X102800Y869902D02*X106550Y873652D01*
X102800Y869902D02*X106550D01*
X45000Y870652D02*X45750Y869902D01*
X45000Y875152D02*Y870652D01*
Y875152D02*X45750Y875902D01*
X47250D01*
X48000Y875152D01*
Y870652D01*
X47250Y869902D02*X48000Y870652D01*
X45750Y869902D02*X47250D01*
X45000Y871402D02*X48000Y874402D01*
X49800Y869902D02*X50550D01*
X52350Y870652D02*X53100Y869902D01*
X52350Y875152D02*Y870652D01*
Y875152D02*X53100Y875902D01*
X54600D01*
X55350Y875152D01*
Y870652D01*
X54600Y869902D02*X55350Y870652D01*
X53100Y869902D02*X54600D01*
X52350Y871402D02*X55350Y874402D01*
X57150Y874702D02*X58350Y875902D01*
Y869902D01*
X57150D02*X59400D01*
X63450Y875902D02*X64200Y875152D01*
X61950Y875902D02*X63450D01*
X61200Y875152D02*X61950Y875902D01*
X61200Y875152D02*Y870652D01*
X61950Y869902D01*
X63450Y873202D02*X64200Y872452D01*
X61200Y873202D02*X63450D01*
X61950Y869902D02*X63450D01*
X64200Y870652D01*
Y872452D02*Y870652D01*
X3000Y890902D02*X3750Y890152D01*
X750Y890902D02*X3000D01*
X0Y890152D02*X750Y890902D01*
X0Y890152D02*Y888652D01*
X750Y887902D01*
X3000D01*
X3750Y887152D01*
Y885652D01*
X3000Y884902D02*X3750Y885652D01*
X750Y884902D02*X3000D01*
X0Y885652D02*X750Y884902D01*
X5550Y887902D02*Y885652D01*
X6300Y884902D01*
X8550Y887902D02*Y883402D01*
X7800Y882652D02*X8550Y883402D01*
X6300Y882652D02*X7800D01*
X5550Y883402D02*X6300Y882652D01*
Y884902D02*X7800D01*
X8550Y885652D01*
X11100Y887152D02*Y884902D01*
Y887152D02*X11850Y887902D01*
X12600D01*
X13350Y887152D01*
Y884902D01*
Y887152D02*X14100Y887902D01*
X14850D01*
X15600Y887152D01*
Y884902D01*
X10350Y887902D02*X11100Y887152D01*
X17400Y890902D02*Y884902D01*
Y885652D02*X18150Y884902D01*
X19650D01*
X20400Y885652D01*
Y887152D02*Y885652D01*
X19650Y887902D02*X20400Y887152D01*
X18150Y887902D02*X19650D01*
X17400Y887152D02*X18150Y887902D01*
X22200Y887152D02*Y885652D01*
Y887152D02*X22950Y887902D01*
X24450D01*
X25200Y887152D01*
Y885652D01*
X24450Y884902D02*X25200Y885652D01*
X22950Y884902D02*X24450D01*
X22200Y885652D02*X22950Y884902D01*
X27000Y890902D02*Y885652D01*
X27750Y884902D01*
X0Y881652D02*X29250D01*
X41750Y890902D02*Y884902D01*
X43700Y890902D02*X44750Y889852D01*
Y885952D01*
X43700Y884902D02*X44750Y885952D01*
X41000Y884902D02*X43700D01*
X41000Y890902D02*X43700D01*
G54D99*X46550Y889402D02*Y889252D01*
G54D98*Y887152D02*Y884902D01*
X50300Y887902D02*X51050Y887152D01*
X48800Y887902D02*X50300D01*
X48050Y887152D02*X48800Y887902D01*
X48050Y887152D02*Y885652D01*
X48800Y884902D01*
X51050Y887902D02*Y885652D01*
X51800Y884902D01*
X48800D02*X50300D01*
X51050Y885652D01*
X54350Y887152D02*Y884902D01*
Y887152D02*X55100Y887902D01*
X55850D01*
X56600Y887152D01*
Y884902D01*
Y887152D02*X57350Y887902D01*
X58100D01*
X58850Y887152D01*
Y884902D01*
X53600Y887902D02*X54350Y887152D01*
X60650Y884902D02*X61400D01*
X65900Y885652D02*X66650Y884902D01*
X65900Y890152D02*X66650Y890902D01*
X65900Y890152D02*Y885652D01*
X68450Y890902D02*X69950D01*
X69200D02*Y884902D01*
X68450D02*X69950D01*
X72500Y887152D02*Y884902D01*
Y887152D02*X73250Y887902D01*
X74000D01*
X74750Y887152D01*
Y884902D01*
X71750Y887902D02*X72500Y887152D01*
X77300Y887902D02*X79550D01*
X76550Y887152D02*X77300Y887902D01*
X76550Y887152D02*Y885652D01*
X77300Y884902D01*
X79550D01*
X81350Y890902D02*Y884902D01*
Y887152D02*X82100Y887902D01*
X83600D01*
X84350Y887152D01*
Y884902D01*
X86150Y890902D02*X86900Y890152D01*
Y885652D01*
X86150Y884902D02*X86900Y885652D01*
X41000Y881652D02*X88700D01*
X96050Y884902D02*X98000D01*
X95000Y885952D02*X96050Y884902D01*
X95000Y889852D02*Y885952D01*
Y889852D02*X96050Y890902D01*
X98000D01*
X99800Y887152D02*Y885652D01*
Y887152D02*X100550Y887902D01*
X102050D01*
X102800Y887152D01*
Y885652D01*
X102050Y884902D02*X102800Y885652D01*
X100550Y884902D02*X102050D01*
X99800Y885652D02*X100550Y884902D01*
X104600Y887902D02*Y885652D01*
X105350Y884902D01*
X106850D01*
X107600Y885652D01*
Y887902D02*Y885652D01*
X110150Y887152D02*Y884902D01*
Y887152D02*X110900Y887902D01*
X111650D01*
X112400Y887152D01*
Y884902D01*
X109400Y887902D02*X110150Y887152D01*
X114950Y890902D02*Y885652D01*
X115700Y884902D01*
X114200Y888652D02*X115700D01*
X95000Y881652D02*X117200D01*
X130750Y890902D02*Y884902D01*
X130000Y890902D02*X133000D01*
X133750Y890152D01*
Y888652D01*
X133000Y887902D02*X133750Y888652D01*
X130750Y887902D02*X133000D01*
X135550Y890902D02*Y885652D01*
X136300Y884902D01*
X140050Y887902D02*X140800Y887152D01*
X138550Y887902D02*X140050D01*
X137800Y887152D02*X138550Y887902D01*
X137800Y887152D02*Y885652D01*
X138550Y884902D01*
X140800Y887902D02*Y885652D01*
X141550Y884902D01*
X138550D02*X140050D01*
X140800Y885652D01*
X144100Y890902D02*Y885652D01*
X144850Y884902D01*
X143350Y888652D02*X144850D01*
X147100Y884902D02*X149350D01*
X146350Y885652D02*X147100Y884902D01*
X146350Y887152D02*Y885652D01*
Y887152D02*X147100Y887902D01*
X148600D01*
X149350Y887152D01*
X146350Y886402D02*X149350D01*
Y887152D02*Y886402D01*
X154150Y890902D02*Y884902D01*
X153400D02*X154150Y885652D01*
X151900Y884902D02*X153400D01*
X151150Y885652D02*X151900Y884902D01*
X151150Y887152D02*Y885652D01*
Y887152D02*X151900Y887902D01*
X153400D01*
X154150Y887152D01*
X157450Y887902D02*Y887152D01*
Y885652D02*Y884902D01*
X155950Y890152D02*Y889402D01*
Y890152D02*X156700Y890902D01*
X158200D01*
X158950Y890152D01*
Y889402D01*
X157450Y887902D02*X158950Y889402D01*
X130000Y881652D02*X160750D01*
X0Y905902D02*X3000D01*
X1500D02*Y899902D01*
X4800Y905902D02*Y899902D01*
Y902152D02*X5550Y902902D01*
X7050D01*
X7800Y902152D01*
Y899902D01*
X10350D02*X12600D01*
X9600Y900652D02*X10350Y899902D01*
X9600Y902152D02*Y900652D01*
Y902152D02*X10350Y902902D01*
X11850D01*
X12600Y902152D01*
X9600Y901402D02*X12600D01*
Y902152D02*Y901402D01*
X15150Y902152D02*Y899902D01*
Y902152D02*X15900Y902902D01*
X17400D01*
X14400D02*X15150Y902152D01*
X19950Y899902D02*X22200D01*
X19200Y900652D02*X19950Y899902D01*
X19200Y902152D02*Y900652D01*
Y902152D02*X19950Y902902D01*
X21450D01*
X22200Y902152D01*
X19200Y901402D02*X22200D01*
Y902152D02*Y901402D01*
X28950Y902902D02*X29700Y902152D01*
X27450Y902902D02*X28950D01*
X26700Y902152D02*X27450Y902902D01*
X26700Y902152D02*Y900652D01*
X27450Y899902D01*
X29700Y902902D02*Y900652D01*
X30450Y899902D01*
X27450D02*X28950D01*
X29700Y900652D01*
X33000Y902152D02*Y899902D01*
Y902152D02*X33750Y902902D01*
X35250D01*
X32250D02*X33000Y902152D01*
X37800Y899902D02*X40050D01*
X37050Y900652D02*X37800Y899902D01*
X37050Y902152D02*Y900652D01*
Y902152D02*X37800Y902902D01*
X39300D01*
X40050Y902152D01*
X37050Y901402D02*X40050D01*
Y902152D02*Y901402D01*
X46800Y905902D02*X47550Y905152D01*
X45300Y905902D02*X46800D01*
X44550Y905152D02*X45300Y905902D01*
X44550Y905152D02*Y900652D01*
X45300Y899902D01*
X46800Y903202D02*X47550Y902452D01*
X44550Y903202D02*X46800D01*
X45300Y899902D02*X46800D01*
X47550Y900652D01*
Y902452D02*Y900652D01*
X55050Y905902D02*Y899902D01*
X54300D02*X55050Y900652D01*
X52800Y899902D02*X54300D01*
X52050Y900652D02*X52800Y899902D01*
X52050Y902152D02*Y900652D01*
Y902152D02*X52800Y902902D01*
X54300D01*
X55050Y902152D01*
G54D99*X56850Y904402D02*Y904252D01*
G54D98*Y902152D02*Y899902D01*
X59100Y905152D02*Y899902D01*
Y905152D02*X59850Y905902D01*
X60600D01*
X58350Y902902D02*X59850D01*
X62850Y905152D02*Y899902D01*
Y905152D02*X63600Y905902D01*
X64350D01*
X62100Y902902D02*X63600D01*
X66600Y899902D02*X68850D01*
X65850Y900652D02*X66600Y899902D01*
X65850Y902152D02*Y900652D01*
Y902152D02*X66600Y902902D01*
X68100D01*
X68850Y902152D01*
X65850Y901402D02*X68850D01*
Y902152D02*Y901402D01*
X71400Y902152D02*Y899902D01*
Y902152D02*X72150Y902902D01*
X73650D01*
X70650D02*X71400Y902152D01*
X76200Y899902D02*X78450D01*
X75450Y900652D02*X76200Y899902D01*
X75450Y902152D02*Y900652D01*
Y902152D02*X76200Y902902D01*
X77700D01*
X78450Y902152D01*
X75450Y901402D02*X78450D01*
Y902152D02*Y901402D01*
X81000Y902152D02*Y899902D01*
Y902152D02*X81750Y902902D01*
X82500D01*
X83250Y902152D01*
Y899902D01*
X80250Y902902D02*X81000Y902152D01*
X85800Y905902D02*Y900652D01*
X86550Y899902D01*
X85050Y903652D02*X86550D01*
X93750Y905902D02*Y899902D01*
X93000D02*X93750Y900652D01*
X91500Y899902D02*X93000D01*
X90750Y900652D02*X91500Y899902D01*
X90750Y902152D02*Y900652D01*
Y902152D02*X91500Y902902D01*
X93000D01*
X93750Y902152D01*
X96300D02*Y899902D01*
Y902152D02*X97050Y902902D01*
X98550D01*
X95550D02*X96300Y902152D01*
G54D99*X100350Y904402D02*Y904252D01*
G54D98*Y902152D02*Y899902D01*
X101850Y905902D02*Y900652D01*
X102600Y899902D01*
X104100Y905902D02*Y900652D01*
X104850Y899902D01*
X109800D02*X112050D01*
X112800Y900652D01*
X112050Y901402D02*X112800Y900652D01*
X109800Y901402D02*X112050D01*
X109050Y902152D02*X109800Y901402D01*
X109050Y902152D02*X109800Y902902D01*
X112050D01*
X112800Y902152D01*
X109050Y900652D02*X109800Y899902D01*
G54D99*X114600Y904402D02*Y904252D01*
G54D98*Y902152D02*Y899902D01*
X116100Y902902D02*X119100D01*
X116100Y899902D02*X119100Y902902D01*
X116100Y899902D02*X119100D01*
X121650D02*X123900D01*
X120900Y900652D02*X121650Y899902D01*
X120900Y902152D02*Y900652D01*
Y902152D02*X121650Y902902D01*
X123150D01*
X123900Y902152D01*
X120900Y901402D02*X123900D01*
Y902152D02*Y901402D01*
X126450Y899902D02*X128700D01*
X129450Y900652D01*
X128700Y901402D02*X129450Y900652D01*
X126450Y901402D02*X128700D01*
X125700Y902152D02*X126450Y901402D01*
X125700Y902152D02*X126450Y902902D01*
X128700D01*
X129450Y902152D01*
X125700Y900652D02*X126450Y899902D01*
X133950Y902902D02*Y900652D01*
X134700Y899902D01*
X136200D01*
X136950Y900652D01*
Y902902D02*Y900652D01*
X139500Y899902D02*X141750D01*
X142500Y900652D01*
X141750Y901402D02*X142500Y900652D01*
X139500Y901402D02*X141750D01*
X138750Y902152D02*X139500Y901402D01*
X138750Y902152D02*X139500Y902902D01*
X141750D01*
X142500Y902152D01*
X138750Y900652D02*X139500Y899902D01*
X145050D02*X147300D01*
X144300Y900652D02*X145050Y899902D01*
X144300Y902152D02*Y900652D01*
Y902152D02*X145050Y902902D01*
X146550D01*
X147300Y902152D01*
X144300Y901402D02*X147300D01*
Y902152D02*Y901402D01*
X152100Y905902D02*Y899902D01*
X151350D02*X152100Y900652D01*
X149850Y899902D02*X151350D01*
X149100Y900652D02*X149850Y899902D01*
X149100Y902152D02*Y900652D01*
Y902152D02*X149850Y902902D01*
X151350D01*
X152100Y902152D01*
G54D99*X156600Y904402D02*Y904252D01*
G54D98*Y902152D02*Y899902D01*
X158850Y902152D02*Y899902D01*
Y902152D02*X159600Y902902D01*
X160350D01*
X161100Y902152D01*
Y899902D01*
X158100Y902902D02*X158850Y902152D01*
X166350Y905902D02*Y900652D01*
X167100Y899902D01*
X165600Y903652D02*X167100D01*
X168600Y905902D02*Y899902D01*
Y902152D02*X169350Y902902D01*
X170850D01*
X171600Y902152D01*
Y899902D01*
G54D99*X173400Y904402D02*Y904252D01*
G54D98*Y902152D02*Y899902D01*
X175650D02*X177900D01*
X178650Y900652D01*
X177900Y901402D02*X178650Y900652D01*
X175650Y901402D02*X177900D01*
X174900Y902152D02*X175650Y901402D01*
X174900Y902152D02*X175650Y902902D01*
X177900D01*
X178650Y902152D01*
X174900Y900652D02*X175650Y899902D01*
X183150Y905902D02*Y900652D01*
X183900Y899902D01*
X187650Y902902D02*X188400Y902152D01*
X186150Y902902D02*X187650D01*
X185400Y902152D02*X186150Y902902D01*
X185400Y902152D02*Y900652D01*
X186150Y899902D01*
X188400Y902902D02*Y900652D01*
X189150Y899902D01*
X186150D02*X187650D01*
X188400Y900652D01*
X190950Y902902D02*Y900652D01*
X191700Y899902D01*
X193950Y902902D02*Y898402D01*
X193200Y897652D02*X193950Y898402D01*
X191700Y897652D02*X193200D01*
X190950Y898402D02*X191700Y897652D01*
Y899902D02*X193200D01*
X193950Y900652D01*
X195750Y902152D02*Y900652D01*
Y902152D02*X196500Y902902D01*
X198000D01*
X198750Y902152D01*
Y900652D01*
X198000Y899902D02*X198750Y900652D01*
X196500Y899902D02*X198000D01*
X195750Y900652D02*X196500Y899902D01*
X200550Y902902D02*Y900652D01*
X201300Y899902D01*
X202800D01*
X203550Y900652D01*
Y902902D02*Y900652D01*
X206100Y905902D02*Y900652D01*
X206850Y899902D01*
X205350Y903652D02*X206850D01*
X208350Y898402D02*X209850Y899902D01*
X214350Y904702D02*X215550Y905902D01*
Y899902D01*
X214350D02*X216600D01*
X218400Y900652D02*X219150Y899902D01*
X218400Y905152D02*Y900652D01*
Y905152D02*X219150Y905902D01*
X220650D01*
X221400Y905152D01*
Y900652D01*
X220650Y899902D02*X221400Y900652D01*
X219150Y899902D02*X220650D01*
X218400Y901402D02*X221400Y904402D01*
X223200Y902152D02*X226200Y905902D01*
X223200Y902152D02*X226950D01*
X226200Y905902D02*Y899902D01*
X231450Y905902D02*Y899902D01*
Y902152D02*X232200Y902902D01*
X233700D01*
X234450Y902152D01*
Y899902D01*
X236250Y902152D02*Y900652D01*
Y902152D02*X237000Y902902D01*
X238500D01*
X239250Y902152D01*
Y900652D01*
X238500Y899902D02*X239250Y900652D01*
X237000Y899902D02*X238500D01*
X236250Y900652D02*X237000Y899902D01*
X241050Y905902D02*Y900652D01*
X241800Y899902D01*
X244050D02*X246300D01*
X243300Y900652D02*X244050Y899902D01*
X243300Y902152D02*Y900652D01*
Y902152D02*X244050Y902902D01*
X245550D01*
X246300Y902152D01*
X243300Y901402D02*X246300D01*
Y902152D02*Y901402D01*
X248850Y899902D02*X251100D01*
X251850Y900652D01*
X251100Y901402D02*X251850Y900652D01*
X248850Y901402D02*X251100D01*
X248100Y902152D02*X248850Y901402D01*
X248100Y902152D02*X248850Y902902D01*
X251100D01*
X251850Y902152D01*
X248100Y900652D02*X248850Y899902D01*
X257100Y905902D02*Y900652D01*
X257850Y899902D01*
X256350Y903652D02*X257850D01*
X259350Y902152D02*Y900652D01*
Y902152D02*X260100Y902902D01*
X261600D01*
X262350Y902152D01*
Y900652D01*
X261600Y899902D02*X262350Y900652D01*
X260100Y899902D02*X261600D01*
X259350Y900652D02*X260100Y899902D01*
X264900Y905902D02*Y900652D01*
X265650Y899902D01*
X264150Y903652D02*X265650D01*
X269400Y902902D02*X270150Y902152D01*
X267900Y902902D02*X269400D01*
X267150Y902152D02*X267900Y902902D01*
X267150Y902152D02*Y900652D01*
X267900Y899902D01*
X270150Y902902D02*Y900652D01*
X270900Y899902D01*
X267900D02*X269400D01*
X270150Y900652D01*
X272700Y905902D02*Y900652D01*
X273450Y899902D01*
G54D100*X196850Y787402D02*X74803Y661417D01*
X129921Y669291D02*X39370Y551181D01*
X122047Y559055D01*
Y547244D02*X15748Y433071D01*
X0Y314961D02*X118110Y322835D01*
X15748Y433071D02*X122047Y440945D01*
X74803Y661417D02*X129921Y677165D01*
Y669291D01*
X122047Y559055D02*Y547244D01*
Y440945D02*Y429134D01*
X196850Y787402D02*X318898Y661417D01*
X263780Y669291D02*X354331Y551181D01*
X271654Y559055D01*
Y547244D02*X377953Y433071D01*
X393701Y314961D02*X275591Y322835D01*
X271654Y429134D02*X393701Y314961D01*
X377953Y433071D02*X271654Y440945D01*
X318898Y661417D02*X263780Y677165D01*
Y669291D01*
X271654Y559055D02*Y547244D01*
Y440945D02*Y429134D01*
X74803Y377953D02*X0Y314961D01*
X74803Y377953D02*X122047Y385827D01*
Y433071D01*
X118110Y322835D02*Y263780D01*
X275591D02*Y322835D01*
X192913Y224409D02*Y275591D01*
X200787D01*
Y224409D01*
X314961D01*
X192913D02*X78740D01*
X118110Y263780D01*
X314961Y224409D02*X275591Y263780D01*
G54D98*X203832Y-9500D02*X206832D01*
X207582Y-8750D01*
Y-6950D02*Y-8750D01*
X206832Y-6200D02*X207582Y-6950D01*
X204582Y-6200D02*X206832D01*
X204582Y-3500D02*Y-9500D01*
X203832Y-3500D02*X206832D01*
X207582Y-4250D01*
Y-5450D01*
X206832Y-6200D02*X207582Y-5450D01*
X209382Y-7250D02*Y-8750D01*
Y-7250D02*X210132Y-6500D01*
X211632D01*
X212382Y-7250D01*
Y-8750D01*
X211632Y-9500D02*X212382Y-8750D01*
X210132Y-9500D02*X211632D01*
X209382Y-8750D02*X210132Y-9500D01*
X216432Y-6500D02*X217182Y-7250D01*
X214932Y-6500D02*X216432D01*
X214182Y-7250D02*X214932Y-6500D01*
X214182Y-7250D02*Y-8750D01*
X214932Y-9500D01*
X217182Y-6500D02*Y-8750D01*
X217932Y-9500D01*
X214932D02*X216432D01*
X217182Y-8750D01*
X220482Y-7250D02*Y-9500D01*
Y-7250D02*X221232Y-6500D01*
X222732D01*
X219732D02*X220482Y-7250D01*
X227532Y-3500D02*Y-9500D01*
X226782D02*X227532Y-8750D01*
X225282Y-9500D02*X226782D01*
X224532Y-8750D02*X225282Y-9500D01*
X224532Y-7250D02*Y-8750D01*
Y-7250D02*X225282Y-6500D01*
X226782D01*
X227532Y-7250D01*
X232032D02*Y-8750D01*
Y-7250D02*X232782Y-6500D01*
X234282D01*
X235032Y-7250D01*
Y-8750D01*
X234282Y-9500D02*X235032Y-8750D01*
X232782Y-9500D02*X234282D01*
X232032Y-8750D02*X232782Y-9500D01*
X236832Y-6500D02*Y-8750D01*
X237582Y-9500D01*
X239082D01*
X239832Y-8750D01*
Y-6500D02*Y-8750D01*
X242382Y-3500D02*Y-8750D01*
X243132Y-9500D01*
X241632Y-5750D02*X243132D01*
X244632Y-3500D02*Y-8750D01*
X245382Y-9500D01*
G54D99*X246882Y-5000D02*Y-5150D01*
G54D98*Y-7250D02*Y-9500D01*
X249132Y-7250D02*Y-9500D01*
Y-7250D02*X249882Y-6500D01*
X250632D01*
X251382Y-7250D01*
Y-9500D01*
X248382Y-6500D02*X249132Y-7250D01*
X253932Y-9500D02*X256182D01*
X253182Y-8750D02*X253932Y-9500D01*
X253182Y-7250D02*Y-8750D01*
Y-7250D02*X253932Y-6500D01*
X255432D01*
X256182Y-7250D01*
X253182Y-8000D02*X256182D01*
Y-7250D02*Y-8000D01*
G54D99*X260682Y-5000D02*Y-5150D01*
G54D98*Y-7250D02*Y-9500D01*
X262932D02*X265182D01*
X265932Y-8750D01*
X265182Y-8000D02*X265932Y-8750D01*
X262932Y-8000D02*X265182D01*
X262182Y-7250D02*X262932Y-8000D01*
X262182Y-7250D02*X262932Y-6500D01*
X265182D01*
X265932Y-7250D01*
X262182Y-8750D02*X262932Y-9500D01*
X271182Y-3500D02*Y-8750D01*
X271932Y-9500D01*
X270432Y-5750D02*X271932D01*
X273432Y-3500D02*Y-9500D01*
Y-7250D02*X274182Y-6500D01*
X275682D01*
X276432Y-7250D01*
Y-9500D01*
X278982D02*X281232D01*
X278232Y-8750D02*X278982Y-9500D01*
X278232Y-7250D02*Y-8750D01*
Y-7250D02*X278982Y-6500D01*
X280482D01*
X281232Y-7250D01*
X278232Y-8000D02*X281232D01*
Y-7250D02*Y-8000D01*
X286482Y-6500D02*X288732D01*
X285732Y-7250D02*X286482Y-6500D01*
X285732Y-7250D02*Y-8750D01*
X286482Y-9500D01*
X288732D01*
X291282D02*X293532D01*
X290532Y-8750D02*X291282Y-9500D01*
X290532Y-7250D02*Y-8750D01*
Y-7250D02*X291282Y-6500D01*
X292782D01*
X293532Y-7250D01*
X290532Y-8000D02*X293532D01*
Y-7250D02*Y-8000D01*
X296082Y-7250D02*Y-9500D01*
Y-7250D02*X296832Y-6500D01*
X297582D01*
X298332Y-7250D01*
Y-9500D01*
X295332Y-6500D02*X296082Y-7250D01*
X300882Y-3500D02*Y-8750D01*
X301632Y-9500D01*
X300132Y-5750D02*X301632D01*
X303882Y-9500D02*X306132D01*
X303132Y-8750D02*X303882Y-9500D01*
X303132Y-7250D02*Y-8750D01*
Y-7250D02*X303882Y-6500D01*
X305382D01*
X306132Y-7250D01*
X303132Y-8000D02*X306132D01*
Y-7250D02*Y-8000D01*
X308683Y-7250D02*Y-9500D01*
Y-7250D02*X309433Y-6500D01*
X310933D01*
X307933D02*X308683Y-7250D01*
X312733Y-3500D02*Y-8750D01*
X313483Y-9500D01*
G54D99*X314983Y-5000D02*Y-5150D01*
G54D98*Y-7250D02*Y-9500D01*
X317233Y-7250D02*Y-9500D01*
Y-7250D02*X317983Y-6500D01*
X318733D01*
X319483Y-7250D01*
Y-9500D01*
X316483Y-6500D02*X317233Y-7250D01*
X322033Y-9500D02*X324283D01*
X321283Y-8750D02*X322033Y-9500D01*
X321283Y-7250D02*Y-8750D01*
Y-7250D02*X322033Y-6500D01*
X323533D01*
X324283Y-7250D01*
X321283Y-8000D02*X324283D01*
Y-7250D02*Y-8000D01*
X328783Y-7250D02*Y-8750D01*
Y-7250D02*X329533Y-6500D01*
X331033D01*
X331783Y-7250D01*
Y-8750D01*
X331033Y-9500D02*X331783Y-8750D01*
X329533Y-9500D02*X331033D01*
X328783Y-8750D02*X329533Y-9500D01*
X334333Y-4250D02*Y-9500D01*
Y-4250D02*X335083Y-3500D01*
X335833D01*
X333583Y-6500D02*X335083D01*
X340783Y-3500D02*Y-8750D01*
X341533Y-9500D01*
X340033Y-5750D02*X341533D01*
X343033Y-3500D02*Y-9500D01*
Y-7250D02*X343783Y-6500D01*
X345283D01*
X346033Y-7250D01*
Y-9500D01*
G54D99*X347833Y-5000D02*Y-5150D01*
G54D98*Y-7250D02*Y-9500D01*
X350083D02*X352333D01*
X353083Y-8750D01*
X352333Y-8000D02*X353083Y-8750D01*
X350083Y-8000D02*X352333D01*
X349333Y-7250D02*X350083Y-8000D01*
X349333Y-7250D02*X350083Y-6500D01*
X352333D01*
X353083Y-7250D01*
X349333Y-8750D02*X350083Y-9500D01*
X358333Y-7250D02*Y-11750D01*
X357583Y-6500D02*X358333Y-7250D01*
X359083Y-6500D01*
X360583D01*
X361333Y-7250D01*
Y-8750D01*
X360583Y-9500D02*X361333Y-8750D01*
X359083Y-9500D02*X360583D01*
X358333Y-8750D02*X359083Y-9500D01*
X365383Y-6500D02*X366133Y-7250D01*
X363883Y-6500D02*X365383D01*
X363133Y-7250D02*X363883Y-6500D01*
X363133Y-7250D02*Y-8750D01*
X363883Y-9500D01*
X366133Y-6500D02*Y-8750D01*
X366883Y-9500D01*
X363883D02*X365383D01*
X366133Y-8750D01*
X369433Y-3500D02*Y-8750D01*
X370183Y-9500D01*
X368683Y-5750D02*X370183D01*
X371683Y-3500D02*Y-9500D01*
Y-7250D02*X372433Y-6500D01*
X373933D01*
X374683Y-7250D01*
Y-9500D01*
X200750Y815902D02*Y809902D01*
X202700Y815902D02*X203750Y814852D01*
Y810952D01*
X202700Y809902D02*X203750Y810952D01*
X200000Y809902D02*X202700D01*
X200000Y815902D02*X202700D01*
X207800Y812902D02*X208550Y812152D01*
X206300Y812902D02*X207800D01*
X205550Y812152D02*X206300Y812902D01*
X205550Y812152D02*Y810652D01*
X206300Y809902D01*
X208550Y812902D02*Y810652D01*
X209300Y809902D01*
X206300D02*X207800D01*
X208550Y810652D01*
X211850Y815902D02*Y810652D01*
X212600Y809902D01*
X211100Y813652D02*X212600D01*
X214850Y809902D02*X217100D01*
X214100Y810652D02*X214850Y809902D01*
X214100Y812152D02*Y810652D01*
Y812152D02*X214850Y812902D01*
X216350D01*
X217100Y812152D01*
X214100Y811402D02*X217100D01*
Y812152D02*Y811402D01*
X218900Y813652D02*X219650D01*
X218900Y812152D02*X219650D01*
X224150Y815902D02*Y812902D01*
X224900Y809902D01*
X226400Y812902D01*
X227900Y809902D01*
X228650Y812902D01*
Y815902D02*Y812902D01*
X231200Y809902D02*X233450D01*
X230450Y810652D02*X231200Y809902D01*
X230450Y812152D02*Y810652D01*
Y812152D02*X231200Y812902D01*
X232700D01*
X233450Y812152D01*
X230450Y811402D02*X233450D01*
Y812152D02*Y811402D01*
X238250Y815902D02*Y809902D01*
X237500D02*X238250Y810652D01*
X236000Y809902D02*X237500D01*
X235250Y810652D02*X236000Y809902D01*
X235250Y812152D02*Y810652D01*
Y812152D02*X236000Y812902D01*
X237500D01*
X238250Y812152D01*
X242750Y810652D02*X243500Y809902D01*
X242750Y815152D02*Y810652D01*
Y815152D02*X243500Y815902D01*
X245000D01*
X245750Y815152D01*
Y810652D01*
X245000Y809902D02*X245750Y810652D01*
X243500Y809902D02*X245000D01*
X242750Y811402D02*X245750Y814402D01*
X247550Y815902D02*X250550D01*
X247550D02*Y812902D01*
X248300Y813652D01*
X249800D01*
X250550Y812902D01*
Y810652D01*
X249800Y809902D02*X250550Y810652D01*
X248300Y809902D02*X249800D01*
X247550Y810652D02*X248300Y809902D01*
X255800Y815902D02*Y809902D01*
X257750Y815902D02*X258800Y814852D01*
Y810952D01*
X257750Y809902D02*X258800Y810952D01*
X255050Y809902D02*X257750D01*
X255050Y815902D02*X257750D01*
X261350Y809902D02*X263600D01*
X260600Y810652D02*X261350Y809902D01*
X260600Y812152D02*Y810652D01*
Y812152D02*X261350Y812902D01*
X262850D01*
X263600Y812152D01*
X260600Y811402D02*X263600D01*
Y812152D02*Y811402D01*
X266150Y812902D02*X268400D01*
X265400Y812152D02*X266150Y812902D01*
X265400Y812152D02*Y810652D01*
X266150Y809902D01*
X268400D01*
X272900Y815152D02*X273650Y815902D01*
X275900D01*
X276650Y815152D01*
Y813652D01*
X272900Y809902D02*X276650Y813652D01*
X272900Y809902D02*X276650D01*
X278450Y810652D02*X279200Y809902D01*
X278450Y815152D02*Y810652D01*
Y815152D02*X279200Y815902D01*
X280700D01*
X281450Y815152D01*
Y810652D01*
X280700Y809902D02*X281450Y810652D01*
X279200Y809902D02*X280700D01*
X278450Y811402D02*X281450Y814402D01*
X283250Y814702D02*X284450Y815902D01*
Y809902D01*
X283250D02*X285500D01*
X287300Y810652D02*X288050Y809902D01*
X287300Y811852D02*Y810652D01*
Y811852D02*X288350Y812902D01*
X289250D01*
X290300Y811852D01*
Y810652D01*
X289550Y809902D02*X290300Y810652D01*
X288050Y809902D02*X289550D01*
X287300Y813952D02*X288350Y812902D01*
X287300Y815152D02*Y813952D01*
Y815152D02*X288050Y815902D01*
X289550D01*
X290300Y815152D01*
Y813952D01*
X289250Y812902D02*X290300Y813952D01*
X294800Y814702D02*X296000Y815902D01*
Y809902D01*
X294800D02*X297050D01*
X298850Y815152D02*X299600Y815902D01*
X301100D01*
X301850Y815152D01*
X301100Y809902D02*X301850Y810652D01*
X299600Y809902D02*X301100D01*
X298850Y810652D02*X299600Y809902D01*
Y813202D02*X301100D01*
X301850Y815152D02*Y813952D01*
Y812452D02*Y810652D01*
Y812452D02*X301100Y813202D01*
X301850Y813952D02*X301100Y813202D01*
X303650Y813652D02*X304400D01*
X303650Y812152D02*X304400D01*
X306200Y814702D02*X307400Y815902D01*
Y809902D01*
X306200D02*X308450D01*
X311000D02*X313250Y812902D01*
Y815152D02*Y812902D01*
X312500Y815902D02*X313250Y815152D01*
X311000Y815902D02*X312500D01*
X310250Y815152D02*X311000Y815902D01*
X310250Y815152D02*Y813652D01*
X311000Y812902D01*
X313250D01*
X315050Y813652D02*X315800D01*
X315050Y812152D02*X315800D01*
X317600Y814702D02*X318800Y815902D01*
Y809902D01*
X317600D02*X319850D01*
X321650Y810652D02*X322400Y809902D01*
X321650Y815152D02*Y810652D01*
Y815152D02*X322400Y815902D01*
X323900D01*
X324650Y815152D01*
Y810652D01*
X323900Y809902D02*X324650Y810652D01*
X322400Y809902D02*X323900D01*
X321650Y811402D02*X324650Y814402D01*
X332150Y815902D02*X332900Y815152D01*
X329900Y815902D02*X332150D01*
X329150Y815152D02*X329900Y815902D01*
X329150Y815152D02*Y810652D01*
X329900Y809902D01*
X332150D01*
X332900Y810652D01*
Y812152D02*Y810652D01*
X332150Y812902D02*X332900Y812152D01*
X330650Y812902D02*X332150D01*
X334700Y815902D02*Y809902D01*
Y815902D02*X336950Y812902D01*
X339200Y815902D01*
Y809902D01*
X341000Y815902D02*X344000D01*
X342500D02*Y809902D01*
X348500Y815902D02*Y810652D01*
X349250Y809902D01*
X350750D01*
X351500Y810652D01*
Y815902D02*Y810652D01*
X353300Y815902D02*X356300D01*
X354800D02*Y809902D01*
X359150D02*X361100D01*
X358100Y810952D02*X359150Y809902D01*
X358100Y814852D02*Y810952D01*
Y814852D02*X359150Y815902D01*
X361100D01*
X200000Y829402D02*Y824902D01*
Y829402D02*X201050Y830902D01*
X202700D01*
X203750Y829402D01*
Y824902D01*
X200000Y827902D02*X203750D01*
X205550D02*Y825652D01*
X206300Y824902D01*
X207800D01*
X208550Y825652D01*
Y827902D02*Y825652D01*
X211100Y830902D02*Y825652D01*
X211850Y824902D01*
X210350Y828652D02*X211850D01*
X213350Y830902D02*Y824902D01*
Y827152D02*X214100Y827902D01*
X215600D01*
X216350Y827152D01*
Y824902D01*
X218150Y827152D02*Y825652D01*
Y827152D02*X218900Y827902D01*
X220400D01*
X221150Y827152D01*
Y825652D01*
X220400Y824902D02*X221150Y825652D01*
X218900Y824902D02*X220400D01*
X218150Y825652D02*X218900Y824902D01*
X223700Y827152D02*Y824902D01*
Y827152D02*X224450Y827902D01*
X225950D01*
X222950D02*X223700Y827152D01*
X227750Y828652D02*X228500D01*
X227750Y827152D02*X228500D01*
X233750Y830902D02*Y824902D01*
X235700Y830902D02*X236750Y829852D01*
Y825952D01*
X235700Y824902D02*X236750Y825952D01*
X233000Y824902D02*X235700D01*
X233000Y830902D02*X235700D01*
X240800Y827902D02*X241550Y827152D01*
X239300Y827902D02*X240800D01*
X238550Y827152D02*X239300Y827902D01*
X238550Y827152D02*Y825652D01*
X239300Y824902D01*
X241550Y827902D02*Y825652D01*
X242300Y824902D01*
X239300D02*X240800D01*
X241550Y825652D01*
X244100Y827902D02*X245600Y824902D01*
X247100Y827902D02*X245600Y824902D01*
G54D99*X248900Y829402D02*Y829252D01*
G54D98*Y827152D02*Y824902D01*
X253400Y830902D02*Y824902D01*
X252650D02*X253400Y825652D01*
X251150Y824902D02*X252650D01*
X250400Y825652D02*X251150Y824902D01*
X250400Y827152D02*Y825652D01*
Y827152D02*X251150Y827902D01*
X252650D01*
X253400Y827152D01*
X257900Y829402D02*Y824902D01*
Y829402D02*X258950Y830902D01*
X260600D01*
X261650Y829402D01*
Y824902D01*
X257900Y827902D02*X261650D01*
X263450D02*Y825652D01*
X264200Y824902D01*
X265700D01*
X266450Y825652D01*
Y827902D02*Y825652D01*
X269000Y824902D02*X271250D01*
X272000Y825652D01*
X271250Y826402D02*X272000Y825652D01*
X269000Y826402D02*X271250D01*
X268250Y827152D02*X269000Y826402D01*
X268250Y827152D02*X269000Y827902D01*
X271250D01*
X272000Y827152D01*
X268250Y825652D02*X269000Y824902D01*
X274550Y830902D02*Y825652D01*
X275300Y824902D01*
X273800Y828652D02*X275300D01*
G54D99*X276800Y829402D02*Y829252D01*
G54D98*Y827152D02*Y824902D01*
X279050Y827152D02*Y824902D01*
Y827152D02*X279800Y827902D01*
X280550D01*
X281300Y827152D01*
Y824902D01*
X278300Y827902D02*X279050Y827152D01*
X200000Y845902D02*X203000D01*
X201500D02*Y839902D01*
G54D99*X204800Y844402D02*Y844252D01*
G54D98*Y842152D02*Y839902D01*
X207050Y845902D02*Y840652D01*
X207800Y839902D01*
X206300Y843652D02*X207800D01*
X209300Y845902D02*Y840652D01*
X210050Y839902D01*
X212300D02*X214550D01*
X211550Y840652D02*X212300Y839902D01*
X211550Y842152D02*Y840652D01*
Y842152D02*X212300Y842902D01*
X213800D01*
X214550Y842152D01*
X211550Y841402D02*X214550D01*
Y842152D02*Y841402D01*
X216350Y843652D02*X217100D01*
X216350Y842152D02*X217100D01*
X221600Y840652D02*X222350Y839902D01*
X221600Y845152D02*X222350Y845902D01*
X221600Y845152D02*Y840652D01*
X224150Y842902D02*Y840652D01*
X224900Y839902D01*
X226400D01*
X227150Y840652D01*
Y842902D02*Y840652D01*
X229700Y842152D02*Y839902D01*
Y842152D02*X230450Y842902D01*
X231200D01*
X231950Y842152D01*
Y839902D01*
X228950Y842902D02*X229700Y842152D01*
X233750Y845902D02*Y839902D01*
Y842152D02*X236000Y839902D01*
X233750Y842152D02*X235250Y843652D01*
X238550Y842152D02*Y839902D01*
Y842152D02*X239300Y842902D01*
X240050D01*
X240800Y842152D01*
Y839902D01*
X237800Y842902D02*X238550Y842152D01*
X242600D02*Y840652D01*
Y842152D02*X243350Y842902D01*
X244850D01*
X245600Y842152D01*
Y840652D01*
X244850Y839902D02*X245600Y840652D01*
X243350Y839902D02*X244850D01*
X242600Y840652D02*X243350Y839902D01*
X247400Y842902D02*Y840652D01*
X248150Y839902D01*
X248900D01*
X249650Y840652D01*
Y842902D02*Y840652D01*
X250400Y839902D01*
X251150D01*
X251900Y840652D01*
Y842902D02*Y840652D01*
X254450Y842152D02*Y839902D01*
Y842152D02*X255200Y842902D01*
X255950D01*
X256700Y842152D01*
Y839902D01*
X253700Y842902D02*X254450Y842152D01*
X258500Y845902D02*X259250Y845152D01*
Y840652D01*
X258500Y839902D02*X259250Y840652D01*
X263750Y842902D02*X266750D01*
X271250Y845902D02*Y839902D01*
Y845902D02*X274250D01*
X271250Y843202D02*X273500D01*
X278300Y842902D02*X279050Y842152D01*
X276800Y842902D02*X278300D01*
X276050Y842152D02*X276800Y842902D01*
X276050Y842152D02*Y840652D01*
X276800Y839902D01*
X279050Y842902D02*Y840652D01*
X279800Y839902D01*
X276800D02*X278300D01*
X279050Y840652D01*
X281600Y845902D02*Y839902D01*
Y840652D02*X282350Y839902D01*
X283850D01*
X284600Y840652D01*
Y842152D02*Y840652D01*
X283850Y842902D02*X284600Y842152D01*
X282350Y842902D02*X283850D01*
X281600Y842152D02*X282350Y842902D01*
X287150Y842152D02*Y839902D01*
Y842152D02*X287900Y842902D01*
X289400D01*
X286400D02*X287150Y842152D01*
G54D99*X291200Y844402D02*Y844252D01*
G54D98*Y842152D02*Y839902D01*
X293450Y842902D02*X295700D01*
X292700Y842152D02*X293450Y842902D01*
X292700Y842152D02*Y840652D01*
X293450Y839902D01*
X295700D01*
X299750Y842902D02*X300500Y842152D01*
X298250Y842902D02*X299750D01*
X297500Y842152D02*X298250Y842902D01*
X297500Y842152D02*Y840652D01*
X298250Y839902D01*
X300500Y842902D02*Y840652D01*
X301250Y839902D01*
X298250D02*X299750D01*
X300500Y840652D01*
X303800Y845902D02*Y840652D01*
X304550Y839902D01*
X303050Y843652D02*X304550D01*
G54D99*X306050Y844402D02*Y844252D01*
G54D98*Y842152D02*Y839902D01*
X307550Y842152D02*Y840652D01*
Y842152D02*X308300Y842902D01*
X309800D01*
X310550Y842152D01*
Y840652D01*
X309800Y839902D02*X310550Y840652D01*
X308300Y839902D02*X309800D01*
X307550Y840652D02*X308300Y839902D01*
X313100Y842152D02*Y839902D01*
Y842152D02*X313850Y842902D01*
X314600D01*
X315350Y842152D01*
Y839902D01*
X312350Y842902D02*X313100Y842152D01*
X320600Y845902D02*Y839902D01*
X322550Y845902D02*X323600Y844852D01*
Y840952D01*
X322550Y839902D02*X323600Y840952D01*
X319850Y839902D02*X322550D01*
X319850Y845902D02*X322550D01*
X326150Y842152D02*Y839902D01*
Y842152D02*X326900Y842902D01*
X328400D01*
X325400D02*X326150Y842152D01*
X332450Y842902D02*X333200Y842152D01*
X330950Y842902D02*X332450D01*
X330200Y842152D02*X330950Y842902D01*
X330200Y842152D02*Y840652D01*
X330950Y839902D01*
X333200Y842902D02*Y840652D01*
X333950Y839902D01*
X330950D02*X332450D01*
X333200Y840652D01*
X335750Y842902D02*Y840652D01*
X336500Y839902D01*
X337250D01*
X338000Y840652D01*
Y842902D02*Y840652D01*
X338750Y839902D01*
X339500D01*
X340250Y840652D01*
Y842902D02*Y840652D01*
G54D99*X342050Y844402D02*Y844252D01*
G54D98*Y842152D02*Y839902D01*
X344300Y842152D02*Y839902D01*
Y842152D02*X345050Y842902D01*
X345800D01*
X346550Y842152D01*
Y839902D01*
X343550Y842902D02*X344300Y842152D01*
X350600Y842902D02*X351350Y842152D01*
X349100Y842902D02*X350600D01*
X348350Y842152D02*X349100Y842902D01*
X348350Y842152D02*Y840652D01*
X349100Y839902D01*
X350600D01*
X351350Y840652D01*
X348350Y838402D02*X349100Y837652D01*
X350600D01*
X351350Y838402D01*
Y842902D02*Y838402D01*
M02*
